<?xml version="1.0" encoding="utf-8" standalone="no"?>
<!DOCTYPE svg PUBLIC "-//W3C//DTD SVG 1.1//EN"
  "http://www.w3.org/Graphics/SVG/1.1/DTD/svg11.dtd">
<!-- Created with matplotlib (https://matplotlib.org/) -->
<svg height="360pt" version="1.1" viewBox="0 0 554.4 360" width="554.4pt" xmlns="http://www.w3.org/2000/svg" xmlns:xlink="http://www.w3.org/1999/xlink">
 <metadata>
  <rdf:RDF xmlns:cc="http://creativecommons.org/ns#" xmlns:dc="http://purl.org/dc/elements/1.1/" xmlns:rdf="http://www.w3.org/1999/02/22-rdf-syntax-ns#">
   <cc:Work>
    <dc:type rdf:resource="http://purl.org/dc/dcmitype/StillImage"/>
    <dc:date>2023-01-26T09:04:12.995934</dc:date>
    <dc:format>image/svg+xml</dc:format>
    <dc:creator>
     <cc:Agent>
      <dc:title>Matplotlib v3.3.2, https://matplotlib.org/</dc:title>
     </cc:Agent>
    </dc:creator>
   </cc:Work>
  </rdf:RDF>
 </metadata>
 <defs>
  <style type="text/css">*{stroke-linecap:butt;stroke-linejoin:round;}</style>
 </defs>
 <g id="figure_1">
  <g id="patch_1">
   <path d="M 0 360 
L 554.4 360 
L 554.4 0 
L 0 0 
z
" style="fill:none;"/>
  </g>
  <g id="axes_1">
   <g id="patch_2">
    <path d="M 69.08 301 
L 537.12 301 
L 537.12 17.28 
L 69.08 17.28 
z
" style="fill:none;"/>
   </g>
   <g id="matplotlib.axis_1">
    <g id="xtick_1">
     <g id="line2d_1">
      <defs>
       <path d="M 0 0 
L 0 3.5 
" id="me0c46dc278" style="stroke:#000000;stroke-width:0.8;"/>
      </defs>
      <g>
       <use style="stroke:#000000;stroke-width:0.8;" x="90.342854" xlink:href="#me0c46dc278" y="301"/>
      </g>
     </g>
     <g id="text_1">
      <!-- 0.1 -->
      <g transform="translate(77.620354 320.1575)scale(0.16 -0.16)">
       <defs>
        <path d="M 31.78125 66.40625 
Q 24.171875 66.40625 20.328125 58.90625 
Q 16.5 51.421875 16.5 36.375 
Q 16.5 21.390625 20.328125 13.890625 
Q 24.171875 6.390625 31.78125 6.390625 
Q 39.453125 6.390625 43.28125 13.890625 
Q 47.125 21.390625 47.125 36.375 
Q 47.125 51.421875 43.28125 58.90625 
Q 39.453125 66.40625 31.78125 66.40625 
z
M 31.78125 74.21875 
Q 44.046875 74.21875 50.515625 64.515625 
Q 56.984375 54.828125 56.984375 36.375 
Q 56.984375 17.96875 50.515625 8.265625 
Q 44.046875 -1.421875 31.78125 -1.421875 
Q 19.53125 -1.421875 13.0625 8.265625 
Q 6.59375 17.96875 6.59375 36.375 
Q 6.59375 54.828125 13.0625 64.515625 
Q 19.53125 74.21875 31.78125 74.21875 
z
" id="DejaVuSans-48"/>
        <path d="M 10.6875 12.40625 
L 21 12.40625 
L 21 0 
L 10.6875 0 
z
" id="DejaVuSans-46"/>
        <path d="M 12.40625 8.296875 
L 28.515625 8.296875 
L 28.515625 63.921875 
L 10.984375 60.40625 
L 10.984375 69.390625 
L 28.421875 72.90625 
L 38.28125 72.90625 
L 38.28125 8.296875 
L 54.390625 8.296875 
L 54.390625 0 
L 12.40625 0 
z
" id="DejaVuSans-49"/>
       </defs>
       <use xlink:href="#DejaVuSans-48"/>
       <use x="63.623047" xlink:href="#DejaVuSans-46"/>
       <use x="95.410156" xlink:href="#DejaVuSans-49"/>
      </g>
     </g>
    </g>
    <g id="xtick_2">
     <g id="line2d_2">
      <g>
       <use style="stroke:#000000;stroke-width:0.8;" x="143.543828" xlink:href="#me0c46dc278" y="301"/>
      </g>
     </g>
     <g id="text_2">
      <!-- 0.2 -->
      <g transform="translate(130.821328 320.1575)scale(0.16 -0.16)">
       <defs>
        <path d="M 19.1875 8.296875 
L 53.609375 8.296875 
L 53.609375 0 
L 7.328125 0 
L 7.328125 8.296875 
Q 12.9375 14.109375 22.625 23.890625 
Q 32.328125 33.6875 34.8125 36.53125 
Q 39.546875 41.84375 41.421875 45.53125 
Q 43.3125 49.21875 43.3125 52.78125 
Q 43.3125 58.59375 39.234375 62.25 
Q 35.15625 65.921875 28.609375 65.921875 
Q 23.96875 65.921875 18.8125 64.3125 
Q 13.671875 62.703125 7.8125 59.421875 
L 7.8125 69.390625 
Q 13.765625 71.78125 18.9375 73 
Q 24.125 74.21875 28.421875 74.21875 
Q 39.75 74.21875 46.484375 68.546875 
Q 53.21875 62.890625 53.21875 53.421875 
Q 53.21875 48.921875 51.53125 44.890625 
Q 49.859375 40.875 45.40625 35.40625 
Q 44.1875 33.984375 37.640625 27.21875 
Q 31.109375 20.453125 19.1875 8.296875 
z
" id="DejaVuSans-50"/>
       </defs>
       <use xlink:href="#DejaVuSans-48"/>
       <use x="63.623047" xlink:href="#DejaVuSans-46"/>
       <use x="95.410156" xlink:href="#DejaVuSans-50"/>
      </g>
     </g>
    </g>
    <g id="xtick_3">
     <g id="line2d_3">
      <g>
       <use style="stroke:#000000;stroke-width:0.8;" x="196.744801" xlink:href="#me0c46dc278" y="301"/>
      </g>
     </g>
     <g id="text_3">
      <!-- 0.3 -->
      <g transform="translate(184.022301 320.1575)scale(0.16 -0.16)">
       <defs>
        <path d="M 40.578125 39.3125 
Q 47.65625 37.796875 51.625 33 
Q 55.609375 28.21875 55.609375 21.1875 
Q 55.609375 10.40625 48.1875 4.484375 
Q 40.765625 -1.421875 27.09375 -1.421875 
Q 22.515625 -1.421875 17.65625 -0.515625 
Q 12.796875 0.390625 7.625 2.203125 
L 7.625 11.71875 
Q 11.71875 9.328125 16.59375 8.109375 
Q 21.484375 6.890625 26.8125 6.890625 
Q 36.078125 6.890625 40.9375 10.546875 
Q 45.796875 14.203125 45.796875 21.1875 
Q 45.796875 27.640625 41.28125 31.265625 
Q 36.765625 34.90625 28.71875 34.90625 
L 20.21875 34.90625 
L 20.21875 43.015625 
L 29.109375 43.015625 
Q 36.375 43.015625 40.234375 45.921875 
Q 44.09375 48.828125 44.09375 54.296875 
Q 44.09375 59.90625 40.109375 62.90625 
Q 36.140625 65.921875 28.71875 65.921875 
Q 24.65625 65.921875 20.015625 65.03125 
Q 15.375 64.15625 9.8125 62.3125 
L 9.8125 71.09375 
Q 15.4375 72.65625 20.34375 73.4375 
Q 25.25 74.21875 29.59375 74.21875 
Q 40.828125 74.21875 47.359375 69.109375 
Q 53.90625 64.015625 53.90625 55.328125 
Q 53.90625 49.265625 50.4375 45.09375 
Q 46.96875 40.921875 40.578125 39.3125 
z
" id="DejaVuSans-51"/>
       </defs>
       <use xlink:href="#DejaVuSans-48"/>
       <use x="63.623047" xlink:href="#DejaVuSans-46"/>
       <use x="95.410156" xlink:href="#DejaVuSans-51"/>
      </g>
     </g>
    </g>
    <g id="xtick_4">
     <g id="line2d_4">
      <g>
       <use style="stroke:#000000;stroke-width:0.8;" x="249.945775" xlink:href="#me0c46dc278" y="301"/>
      </g>
     </g>
     <g id="text_4">
      <!-- 0.4 -->
      <g transform="translate(237.223275 320.1575)scale(0.16 -0.16)">
       <defs>
        <path d="M 37.796875 64.3125 
L 12.890625 25.390625 
L 37.796875 25.390625 
z
M 35.203125 72.90625 
L 47.609375 72.90625 
L 47.609375 25.390625 
L 58.015625 25.390625 
L 58.015625 17.1875 
L 47.609375 17.1875 
L 47.609375 0 
L 37.796875 0 
L 37.796875 17.1875 
L 4.890625 17.1875 
L 4.890625 26.703125 
z
" id="DejaVuSans-52"/>
       </defs>
       <use xlink:href="#DejaVuSans-48"/>
       <use x="63.623047" xlink:href="#DejaVuSans-46"/>
       <use x="95.410156" xlink:href="#DejaVuSans-52"/>
      </g>
     </g>
    </g>
    <g id="xtick_5">
     <g id="line2d_5">
      <g>
       <use style="stroke:#000000;stroke-width:0.8;" x="303.146748" xlink:href="#me0c46dc278" y="301"/>
      </g>
     </g>
     <g id="text_5">
      <!-- 0.5 -->
      <g transform="translate(290.424248 320.1575)scale(0.16 -0.16)">
       <defs>
        <path d="M 10.796875 72.90625 
L 49.515625 72.90625 
L 49.515625 64.59375 
L 19.828125 64.59375 
L 19.828125 46.734375 
Q 21.96875 47.46875 24.109375 47.828125 
Q 26.265625 48.1875 28.421875 48.1875 
Q 40.625 48.1875 47.75 41.5 
Q 54.890625 34.8125 54.890625 23.390625 
Q 54.890625 11.625 47.5625 5.09375 
Q 40.234375 -1.421875 26.90625 -1.421875 
Q 22.3125 -1.421875 17.546875 -0.640625 
Q 12.796875 0.140625 7.71875 1.703125 
L 7.71875 11.625 
Q 12.109375 9.234375 16.796875 8.0625 
Q 21.484375 6.890625 26.703125 6.890625 
Q 35.15625 6.890625 40.078125 11.328125 
Q 45.015625 15.765625 45.015625 23.390625 
Q 45.015625 31 40.078125 35.4375 
Q 35.15625 39.890625 26.703125 39.890625 
Q 22.75 39.890625 18.8125 39.015625 
Q 14.890625 38.140625 10.796875 36.28125 
z
" id="DejaVuSans-53"/>
       </defs>
       <use xlink:href="#DejaVuSans-48"/>
       <use x="63.623047" xlink:href="#DejaVuSans-46"/>
       <use x="95.410156" xlink:href="#DejaVuSans-53"/>
      </g>
     </g>
    </g>
    <g id="xtick_6">
     <g id="line2d_6">
      <g>
       <use style="stroke:#000000;stroke-width:0.8;" x="356.347722" xlink:href="#me0c46dc278" y="301"/>
      </g>
     </g>
     <g id="text_6">
      <!-- 0.6 -->
      <g transform="translate(343.625222 320.1575)scale(0.16 -0.16)">
       <defs>
        <path d="M 33.015625 40.375 
Q 26.375 40.375 22.484375 35.828125 
Q 18.609375 31.296875 18.609375 23.390625 
Q 18.609375 15.53125 22.484375 10.953125 
Q 26.375 6.390625 33.015625 6.390625 
Q 39.65625 6.390625 43.53125 10.953125 
Q 47.40625 15.53125 47.40625 23.390625 
Q 47.40625 31.296875 43.53125 35.828125 
Q 39.65625 40.375 33.015625 40.375 
z
M 52.59375 71.296875 
L 52.59375 62.3125 
Q 48.875 64.0625 45.09375 64.984375 
Q 41.3125 65.921875 37.59375 65.921875 
Q 27.828125 65.921875 22.671875 59.328125 
Q 17.53125 52.734375 16.796875 39.40625 
Q 19.671875 43.65625 24.015625 45.921875 
Q 28.375 48.1875 33.59375 48.1875 
Q 44.578125 48.1875 50.953125 41.515625 
Q 57.328125 34.859375 57.328125 23.390625 
Q 57.328125 12.15625 50.6875 5.359375 
Q 44.046875 -1.421875 33.015625 -1.421875 
Q 20.359375 -1.421875 13.671875 8.265625 
Q 6.984375 17.96875 6.984375 36.375 
Q 6.984375 53.65625 15.1875 63.9375 
Q 23.390625 74.21875 37.203125 74.21875 
Q 40.921875 74.21875 44.703125 73.484375 
Q 48.484375 72.75 52.59375 71.296875 
z
" id="DejaVuSans-54"/>
       </defs>
       <use xlink:href="#DejaVuSans-48"/>
       <use x="63.623047" xlink:href="#DejaVuSans-46"/>
       <use x="95.410156" xlink:href="#DejaVuSans-54"/>
      </g>
     </g>
    </g>
    <g id="xtick_7">
     <g id="line2d_7">
      <g>
       <use style="stroke:#000000;stroke-width:0.8;" x="409.548695" xlink:href="#me0c46dc278" y="301"/>
      </g>
     </g>
     <g id="text_7">
      <!-- 0.7 -->
      <g transform="translate(396.826195 320.1575)scale(0.16 -0.16)">
       <defs>
        <path d="M 8.203125 72.90625 
L 55.078125 72.90625 
L 55.078125 68.703125 
L 28.609375 0 
L 18.3125 0 
L 43.21875 64.59375 
L 8.203125 64.59375 
z
" id="DejaVuSans-55"/>
       </defs>
       <use xlink:href="#DejaVuSans-48"/>
       <use x="63.623047" xlink:href="#DejaVuSans-46"/>
       <use x="95.410156" xlink:href="#DejaVuSans-55"/>
      </g>
     </g>
    </g>
    <g id="xtick_8">
     <g id="line2d_8">
      <g>
       <use style="stroke:#000000;stroke-width:0.8;" x="462.749669" xlink:href="#me0c46dc278" y="301"/>
      </g>
     </g>
     <g id="text_8">
      <!-- 0.8 -->
      <g transform="translate(450.027169 320.1575)scale(0.16 -0.16)">
       <defs>
        <path d="M 31.78125 34.625 
Q 24.75 34.625 20.71875 30.859375 
Q 16.703125 27.09375 16.703125 20.515625 
Q 16.703125 13.921875 20.71875 10.15625 
Q 24.75 6.390625 31.78125 6.390625 
Q 38.8125 6.390625 42.859375 10.171875 
Q 46.921875 13.96875 46.921875 20.515625 
Q 46.921875 27.09375 42.890625 30.859375 
Q 38.875 34.625 31.78125 34.625 
z
M 21.921875 38.8125 
Q 15.578125 40.375 12.03125 44.71875 
Q 8.5 49.078125 8.5 55.328125 
Q 8.5 64.0625 14.71875 69.140625 
Q 20.953125 74.21875 31.78125 74.21875 
Q 42.671875 74.21875 48.875 69.140625 
Q 55.078125 64.0625 55.078125 55.328125 
Q 55.078125 49.078125 51.53125 44.71875 
Q 48 40.375 41.703125 38.8125 
Q 48.828125 37.15625 52.796875 32.3125 
Q 56.78125 27.484375 56.78125 20.515625 
Q 56.78125 9.90625 50.3125 4.234375 
Q 43.84375 -1.421875 31.78125 -1.421875 
Q 19.734375 -1.421875 13.25 4.234375 
Q 6.78125 9.90625 6.78125 20.515625 
Q 6.78125 27.484375 10.78125 32.3125 
Q 14.796875 37.15625 21.921875 38.8125 
z
M 18.3125 54.390625 
Q 18.3125 48.734375 21.84375 45.5625 
Q 25.390625 42.390625 31.78125 42.390625 
Q 38.140625 42.390625 41.71875 45.5625 
Q 45.3125 48.734375 45.3125 54.390625 
Q 45.3125 60.0625 41.71875 63.234375 
Q 38.140625 66.40625 31.78125 66.40625 
Q 25.390625 66.40625 21.84375 63.234375 
Q 18.3125 60.0625 18.3125 54.390625 
z
" id="DejaVuSans-56"/>
       </defs>
       <use xlink:href="#DejaVuSans-48"/>
       <use x="63.623047" xlink:href="#DejaVuSans-46"/>
       <use x="95.410156" xlink:href="#DejaVuSans-56"/>
      </g>
     </g>
    </g>
    <g id="xtick_9">
     <g id="line2d_9">
      <g>
       <use style="stroke:#000000;stroke-width:0.8;" x="515.950642" xlink:href="#me0c46dc278" y="301"/>
      </g>
     </g>
     <g id="text_9">
      <!-- 0.9 -->
      <g transform="translate(503.228142 320.1575)scale(0.16 -0.16)">
       <defs>
        <path d="M 10.984375 1.515625 
L 10.984375 10.5 
Q 14.703125 8.734375 18.5 7.8125 
Q 22.3125 6.890625 25.984375 6.890625 
Q 35.75 6.890625 40.890625 13.453125 
Q 46.046875 20.015625 46.78125 33.40625 
Q 43.953125 29.203125 39.59375 26.953125 
Q 35.25 24.703125 29.984375 24.703125 
Q 19.046875 24.703125 12.671875 31.3125 
Q 6.296875 37.9375 6.296875 49.421875 
Q 6.296875 60.640625 12.9375 67.421875 
Q 19.578125 74.21875 30.609375 74.21875 
Q 43.265625 74.21875 49.921875 64.515625 
Q 56.59375 54.828125 56.59375 36.375 
Q 56.59375 19.140625 48.40625 8.859375 
Q 40.234375 -1.421875 26.421875 -1.421875 
Q 22.703125 -1.421875 18.890625 -0.6875 
Q 15.09375 0.046875 10.984375 1.515625 
z
M 30.609375 32.421875 
Q 37.25 32.421875 41.125 36.953125 
Q 45.015625 41.5 45.015625 49.421875 
Q 45.015625 57.28125 41.125 61.84375 
Q 37.25 66.40625 30.609375 66.40625 
Q 23.96875 66.40625 20.09375 61.84375 
Q 16.21875 57.28125 16.21875 49.421875 
Q 16.21875 41.5 20.09375 36.953125 
Q 23.96875 32.421875 30.609375 32.421875 
z
" id="DejaVuSans-57"/>
       </defs>
       <use xlink:href="#DejaVuSans-48"/>
       <use x="63.623047" xlink:href="#DejaVuSans-46"/>
       <use x="95.410156" xlink:href="#DejaVuSans-57"/>
      </g>
     </g>
    </g>
    <g id="text_10">
     <!-- Packing Fraction -->
     <g transform="translate(237.85375 339.6425)scale(0.16 -0.16)">
      <defs>
       <path d="M 19.671875 64.796875 
L 19.671875 37.40625 
L 32.078125 37.40625 
Q 38.96875 37.40625 42.71875 40.96875 
Q 46.484375 44.53125 46.484375 51.125 
Q 46.484375 57.671875 42.71875 61.234375 
Q 38.96875 64.796875 32.078125 64.796875 
z
M 9.8125 72.90625 
L 32.078125 72.90625 
Q 44.34375 72.90625 50.609375 67.359375 
Q 56.890625 61.8125 56.890625 51.125 
Q 56.890625 40.328125 50.609375 34.8125 
Q 44.34375 29.296875 32.078125 29.296875 
L 19.671875 29.296875 
L 19.671875 0 
L 9.8125 0 
z
" id="DejaVuSans-80"/>
       <path d="M 34.28125 27.484375 
Q 23.390625 27.484375 19.1875 25 
Q 14.984375 22.515625 14.984375 16.5 
Q 14.984375 11.71875 18.140625 8.90625 
Q 21.296875 6.109375 26.703125 6.109375 
Q 34.1875 6.109375 38.703125 11.40625 
Q 43.21875 16.703125 43.21875 25.484375 
L 43.21875 27.484375 
z
M 52.203125 31.203125 
L 52.203125 0 
L 43.21875 0 
L 43.21875 8.296875 
Q 40.140625 3.328125 35.546875 0.953125 
Q 30.953125 -1.421875 24.3125 -1.421875 
Q 15.921875 -1.421875 10.953125 3.296875 
Q 6 8.015625 6 15.921875 
Q 6 25.140625 12.171875 29.828125 
Q 18.359375 34.515625 30.609375 34.515625 
L 43.21875 34.515625 
L 43.21875 35.40625 
Q 43.21875 41.609375 39.140625 45 
Q 35.0625 48.390625 27.6875 48.390625 
Q 23 48.390625 18.546875 47.265625 
Q 14.109375 46.140625 10.015625 43.890625 
L 10.015625 52.203125 
Q 14.9375 54.109375 19.578125 55.046875 
Q 24.21875 56 28.609375 56 
Q 40.484375 56 46.34375 49.84375 
Q 52.203125 43.703125 52.203125 31.203125 
z
" id="DejaVuSans-97"/>
       <path d="M 48.78125 52.59375 
L 48.78125 44.1875 
Q 44.96875 46.296875 41.140625 47.34375 
Q 37.3125 48.390625 33.40625 48.390625 
Q 24.65625 48.390625 19.8125 42.84375 
Q 14.984375 37.3125 14.984375 27.296875 
Q 14.984375 17.28125 19.8125 11.734375 
Q 24.65625 6.203125 33.40625 6.203125 
Q 37.3125 6.203125 41.140625 7.25 
Q 44.96875 8.296875 48.78125 10.40625 
L 48.78125 2.09375 
Q 45.015625 0.34375 40.984375 -0.53125 
Q 36.96875 -1.421875 32.421875 -1.421875 
Q 20.0625 -1.421875 12.78125 6.34375 
Q 5.515625 14.109375 5.515625 27.296875 
Q 5.515625 40.671875 12.859375 48.328125 
Q 20.21875 56 33.015625 56 
Q 37.15625 56 41.109375 55.140625 
Q 45.0625 54.296875 48.78125 52.59375 
z
" id="DejaVuSans-99"/>
       <path d="M 9.078125 75.984375 
L 18.109375 75.984375 
L 18.109375 31.109375 
L 44.921875 54.6875 
L 56.390625 54.6875 
L 27.390625 29.109375 
L 57.625 0 
L 45.90625 0 
L 18.109375 26.703125 
L 18.109375 0 
L 9.078125 0 
z
" id="DejaVuSans-107"/>
       <path d="M 9.421875 54.6875 
L 18.40625 54.6875 
L 18.40625 0 
L 9.421875 0 
z
M 9.421875 75.984375 
L 18.40625 75.984375 
L 18.40625 64.59375 
L 9.421875 64.59375 
z
" id="DejaVuSans-105"/>
       <path d="M 54.890625 33.015625 
L 54.890625 0 
L 45.90625 0 
L 45.90625 32.71875 
Q 45.90625 40.484375 42.875 44.328125 
Q 39.84375 48.1875 33.796875 48.1875 
Q 26.515625 48.1875 22.3125 43.546875 
Q 18.109375 38.921875 18.109375 30.90625 
L 18.109375 0 
L 9.078125 0 
L 9.078125 54.6875 
L 18.109375 54.6875 
L 18.109375 46.1875 
Q 21.34375 51.125 25.703125 53.5625 
Q 30.078125 56 35.796875 56 
Q 45.21875 56 50.046875 50.171875 
Q 54.890625 44.34375 54.890625 33.015625 
z
" id="DejaVuSans-110"/>
       <path d="M 45.40625 27.984375 
Q 45.40625 37.75 41.375 43.109375 
Q 37.359375 48.484375 30.078125 48.484375 
Q 22.859375 48.484375 18.828125 43.109375 
Q 14.796875 37.75 14.796875 27.984375 
Q 14.796875 18.265625 18.828125 12.890625 
Q 22.859375 7.515625 30.078125 7.515625 
Q 37.359375 7.515625 41.375 12.890625 
Q 45.40625 18.265625 45.40625 27.984375 
z
M 54.390625 6.78125 
Q 54.390625 -7.171875 48.1875 -13.984375 
Q 42 -20.796875 29.203125 -20.796875 
Q 24.46875 -20.796875 20.265625 -20.09375 
Q 16.0625 -19.390625 12.109375 -17.921875 
L 12.109375 -9.1875 
Q 16.0625 -11.328125 19.921875 -12.34375 
Q 23.78125 -13.375 27.78125 -13.375 
Q 36.625 -13.375 41.015625 -8.765625 
Q 45.40625 -4.15625 45.40625 5.171875 
L 45.40625 9.625 
Q 42.625 4.78125 38.28125 2.390625 
Q 33.9375 0 27.875 0 
Q 17.828125 0 11.671875 7.65625 
Q 5.515625 15.328125 5.515625 27.984375 
Q 5.515625 40.671875 11.671875 48.328125 
Q 17.828125 56 27.875 56 
Q 33.9375 56 38.28125 53.609375 
Q 42.625 51.21875 45.40625 46.390625 
L 45.40625 54.6875 
L 54.390625 54.6875 
z
" id="DejaVuSans-103"/>
       <path id="DejaVuSans-32"/>
       <path d="M 9.8125 72.90625 
L 51.703125 72.90625 
L 51.703125 64.59375 
L 19.671875 64.59375 
L 19.671875 43.109375 
L 48.578125 43.109375 
L 48.578125 34.8125 
L 19.671875 34.8125 
L 19.671875 0 
L 9.8125 0 
z
" id="DejaVuSans-70"/>
       <path d="M 41.109375 46.296875 
Q 39.59375 47.171875 37.8125 47.578125 
Q 36.03125 48 33.890625 48 
Q 26.265625 48 22.1875 43.046875 
Q 18.109375 38.09375 18.109375 28.8125 
L 18.109375 0 
L 9.078125 0 
L 9.078125 54.6875 
L 18.109375 54.6875 
L 18.109375 46.1875 
Q 20.953125 51.171875 25.484375 53.578125 
Q 30.03125 56 36.53125 56 
Q 37.453125 56 38.578125 55.875 
Q 39.703125 55.765625 41.0625 55.515625 
z
" id="DejaVuSans-114"/>
       <path d="M 18.3125 70.21875 
L 18.3125 54.6875 
L 36.8125 54.6875 
L 36.8125 47.703125 
L 18.3125 47.703125 
L 18.3125 18.015625 
Q 18.3125 11.328125 20.140625 9.421875 
Q 21.96875 7.515625 27.59375 7.515625 
L 36.8125 7.515625 
L 36.8125 0 
L 27.59375 0 
Q 17.1875 0 13.234375 3.875 
Q 9.28125 7.765625 9.28125 18.015625 
L 9.28125 47.703125 
L 2.6875 47.703125 
L 2.6875 54.6875 
L 9.28125 54.6875 
L 9.28125 70.21875 
z
" id="DejaVuSans-116"/>
       <path d="M 30.609375 48.390625 
Q 23.390625 48.390625 19.1875 42.75 
Q 14.984375 37.109375 14.984375 27.296875 
Q 14.984375 17.484375 19.15625 11.84375 
Q 23.34375 6.203125 30.609375 6.203125 
Q 37.796875 6.203125 41.984375 11.859375 
Q 46.1875 17.53125 46.1875 27.296875 
Q 46.1875 37.015625 41.984375 42.703125 
Q 37.796875 48.390625 30.609375 48.390625 
z
M 30.609375 56 
Q 42.328125 56 49.015625 48.375 
Q 55.71875 40.765625 55.71875 27.296875 
Q 55.71875 13.875 49.015625 6.21875 
Q 42.328125 -1.421875 30.609375 -1.421875 
Q 18.84375 -1.421875 12.171875 6.21875 
Q 5.515625 13.875 5.515625 27.296875 
Q 5.515625 40.765625 12.171875 48.375 
Q 18.84375 56 30.609375 56 
z
" id="DejaVuSans-111"/>
      </defs>
      <use xlink:href="#DejaVuSans-80"/>
      <use x="55.802734" xlink:href="#DejaVuSans-97"/>
      <use x="117.082031" xlink:href="#DejaVuSans-99"/>
      <use x="172.0625" xlink:href="#DejaVuSans-107"/>
      <use x="229.972656" xlink:href="#DejaVuSans-105"/>
      <use x="257.755859" xlink:href="#DejaVuSans-110"/>
      <use x="321.134766" xlink:href="#DejaVuSans-103"/>
      <use x="384.611328" xlink:href="#DejaVuSans-32"/>
      <use x="416.398438" xlink:href="#DejaVuSans-70"/>
      <use x="466.667969" xlink:href="#DejaVuSans-114"/>
      <use x="507.78125" xlink:href="#DejaVuSans-97"/>
      <use x="569.060547" xlink:href="#DejaVuSans-99"/>
      <use x="624.041016" xlink:href="#DejaVuSans-116"/>
      <use x="663.25" xlink:href="#DejaVuSans-105"/>
      <use x="691.033203" xlink:href="#DejaVuSans-111"/>
      <use x="752.214844" xlink:href="#DejaVuSans-110"/>
     </g>
    </g>
   </g>
   <g id="matplotlib.axis_2">
    <g id="ytick_1">
     <g id="line2d_10">
      <defs>
       <path d="M 0 0 
L -3.5 0 
" id="mfa17f7e88b" style="stroke:#000000;stroke-width:0.8;"/>
      </defs>
      <g>
       <use style="stroke:#000000;stroke-width:0.8;" x="69.08" xlink:href="#mfa17f7e88b" y="288.750071"/>
      </g>
     </g>
     <g id="text_11">
      <!-- 0.0 -->
      <g transform="translate(36.635 294.828821)scale(0.16 -0.16)">
       <use xlink:href="#DejaVuSans-48"/>
       <use x="63.623047" xlink:href="#DejaVuSans-46"/>
       <use x="95.410156" xlink:href="#DejaVuSans-48"/>
      </g>
     </g>
    </g>
    <g id="ytick_2">
     <g id="line2d_11">
      <g>
       <use style="stroke:#000000;stroke-width:0.8;" x="69.08" xlink:href="#mfa17f7e88b" y="237.035329"/>
      </g>
     </g>
     <g id="text_12">
      <!-- 0.2 -->
      <g transform="translate(36.635 243.114079)scale(0.16 -0.16)">
       <use xlink:href="#DejaVuSans-48"/>
       <use x="63.623047" xlink:href="#DejaVuSans-46"/>
       <use x="95.410156" xlink:href="#DejaVuSans-50"/>
      </g>
     </g>
    </g>
    <g id="ytick_3">
     <g id="line2d_12">
      <g>
       <use style="stroke:#000000;stroke-width:0.8;" x="69.08" xlink:href="#mfa17f7e88b" y="185.320588"/>
      </g>
     </g>
     <g id="text_13">
      <!-- 0.4 -->
      <g transform="translate(36.635 191.399338)scale(0.16 -0.16)">
       <use xlink:href="#DejaVuSans-48"/>
       <use x="63.623047" xlink:href="#DejaVuSans-46"/>
       <use x="95.410156" xlink:href="#DejaVuSans-52"/>
      </g>
     </g>
    </g>
    <g id="ytick_4">
     <g id="line2d_13">
      <g>
       <use style="stroke:#000000;stroke-width:0.8;" x="69.08" xlink:href="#mfa17f7e88b" y="133.605846"/>
      </g>
     </g>
     <g id="text_14">
      <!-- 0.6 -->
      <g transform="translate(36.635 139.684596)scale(0.16 -0.16)">
       <use xlink:href="#DejaVuSans-48"/>
       <use x="63.623047" xlink:href="#DejaVuSans-46"/>
       <use x="95.410156" xlink:href="#DejaVuSans-54"/>
      </g>
     </g>
    </g>
    <g id="ytick_5">
     <g id="line2d_14">
      <g>
       <use style="stroke:#000000;stroke-width:0.8;" x="69.08" xlink:href="#mfa17f7e88b" y="81.891105"/>
      </g>
     </g>
     <g id="text_15">
      <!-- 0.8 -->
      <g transform="translate(36.635 87.969855)scale(0.16 -0.16)">
       <use xlink:href="#DejaVuSans-48"/>
       <use x="63.623047" xlink:href="#DejaVuSans-46"/>
       <use x="95.410156" xlink:href="#DejaVuSans-56"/>
      </g>
     </g>
    </g>
    <g id="ytick_6">
     <g id="line2d_15">
      <g>
       <use style="stroke:#000000;stroke-width:0.8;" x="69.08" xlink:href="#mfa17f7e88b" y="30.176364"/>
      </g>
     </g>
     <g id="text_16">
      <!-- 1.0 -->
      <g transform="translate(36.635 36.255114)scale(0.16 -0.16)">
       <use xlink:href="#DejaVuSans-49"/>
       <use x="63.623047" xlink:href="#DejaVuSans-46"/>
       <use x="95.410156" xlink:href="#DejaVuSans-48"/>
      </g>
     </g>
    </g>
    <g id="text_17">
     <!-- Largest Cluster Size -->
     <g transform="translate(29.3075 238.855)rotate(-90)scale(0.16 -0.16)">
      <defs>
       <path d="M 9.8125 72.90625 
L 19.671875 72.90625 
L 19.671875 8.296875 
L 55.171875 8.296875 
L 55.171875 0 
L 9.8125 0 
z
" id="DejaVuSans-76"/>
       <path d="M 56.203125 29.59375 
L 56.203125 25.203125 
L 14.890625 25.203125 
Q 15.484375 15.921875 20.484375 11.0625 
Q 25.484375 6.203125 34.421875 6.203125 
Q 39.59375 6.203125 44.453125 7.46875 
Q 49.3125 8.734375 54.109375 11.28125 
L 54.109375 2.78125 
Q 49.265625 0.734375 44.1875 -0.34375 
Q 39.109375 -1.421875 33.890625 -1.421875 
Q 20.796875 -1.421875 13.15625 6.1875 
Q 5.515625 13.8125 5.515625 26.8125 
Q 5.515625 40.234375 12.765625 48.109375 
Q 20.015625 56 32.328125 56 
Q 43.359375 56 49.78125 48.890625 
Q 56.203125 41.796875 56.203125 29.59375 
z
M 47.21875 32.234375 
Q 47.125 39.59375 43.09375 43.984375 
Q 39.0625 48.390625 32.421875 48.390625 
Q 24.90625 48.390625 20.390625 44.140625 
Q 15.875 39.890625 15.1875 32.171875 
z
" id="DejaVuSans-101"/>
       <path d="M 44.28125 53.078125 
L 44.28125 44.578125 
Q 40.484375 46.53125 36.375 47.5 
Q 32.28125 48.484375 27.875 48.484375 
Q 21.1875 48.484375 17.84375 46.4375 
Q 14.5 44.390625 14.5 40.28125 
Q 14.5 37.15625 16.890625 35.375 
Q 19.28125 33.59375 26.515625 31.984375 
L 29.59375 31.296875 
Q 39.15625 29.25 43.1875 25.515625 
Q 47.21875 21.78125 47.21875 15.09375 
Q 47.21875 7.46875 41.1875 3.015625 
Q 35.15625 -1.421875 24.609375 -1.421875 
Q 20.21875 -1.421875 15.453125 -0.5625 
Q 10.6875 0.296875 5.421875 2 
L 5.421875 11.28125 
Q 10.40625 8.6875 15.234375 7.390625 
Q 20.0625 6.109375 24.8125 6.109375 
Q 31.15625 6.109375 34.5625 8.28125 
Q 37.984375 10.453125 37.984375 14.40625 
Q 37.984375 18.0625 35.515625 20.015625 
Q 33.0625 21.96875 24.703125 23.78125 
L 21.578125 24.515625 
Q 13.234375 26.265625 9.515625 29.90625 
Q 5.8125 33.546875 5.8125 39.890625 
Q 5.8125 47.609375 11.28125 51.796875 
Q 16.75 56 26.8125 56 
Q 31.78125 56 36.171875 55.265625 
Q 40.578125 54.546875 44.28125 53.078125 
z
" id="DejaVuSans-115"/>
       <path d="M 64.40625 67.28125 
L 64.40625 56.890625 
Q 59.421875 61.53125 53.78125 63.8125 
Q 48.140625 66.109375 41.796875 66.109375 
Q 29.296875 66.109375 22.65625 58.46875 
Q 16.015625 50.828125 16.015625 36.375 
Q 16.015625 21.96875 22.65625 14.328125 
Q 29.296875 6.6875 41.796875 6.6875 
Q 48.140625 6.6875 53.78125 8.984375 
Q 59.421875 11.28125 64.40625 15.921875 
L 64.40625 5.609375 
Q 59.234375 2.09375 53.4375 0.328125 
Q 47.65625 -1.421875 41.21875 -1.421875 
Q 24.65625 -1.421875 15.125 8.703125 
Q 5.609375 18.84375 5.609375 36.375 
Q 5.609375 53.953125 15.125 64.078125 
Q 24.65625 74.21875 41.21875 74.21875 
Q 47.75 74.21875 53.53125 72.484375 
Q 59.328125 70.75 64.40625 67.28125 
z
" id="DejaVuSans-67"/>
       <path d="M 9.421875 75.984375 
L 18.40625 75.984375 
L 18.40625 0 
L 9.421875 0 
z
" id="DejaVuSans-108"/>
       <path d="M 8.5 21.578125 
L 8.5 54.6875 
L 17.484375 54.6875 
L 17.484375 21.921875 
Q 17.484375 14.15625 20.5 10.265625 
Q 23.53125 6.390625 29.59375 6.390625 
Q 36.859375 6.390625 41.078125 11.03125 
Q 45.3125 15.671875 45.3125 23.6875 
L 45.3125 54.6875 
L 54.296875 54.6875 
L 54.296875 0 
L 45.3125 0 
L 45.3125 8.40625 
Q 42.046875 3.421875 37.71875 1 
Q 33.40625 -1.421875 27.6875 -1.421875 
Q 18.265625 -1.421875 13.375 4.4375 
Q 8.5 10.296875 8.5 21.578125 
z
M 31.109375 56 
z
" id="DejaVuSans-117"/>
       <path d="M 53.515625 70.515625 
L 53.515625 60.890625 
Q 47.90625 63.578125 42.921875 64.890625 
Q 37.9375 66.21875 33.296875 66.21875 
Q 25.25 66.21875 20.875 63.09375 
Q 16.5 59.96875 16.5 54.203125 
Q 16.5 49.359375 19.40625 46.890625 
Q 22.3125 44.4375 30.421875 42.921875 
L 36.375 41.703125 
Q 47.40625 39.59375 52.65625 34.296875 
Q 57.90625 29 57.90625 20.125 
Q 57.90625 9.515625 50.796875 4.046875 
Q 43.703125 -1.421875 29.984375 -1.421875 
Q 24.8125 -1.421875 18.96875 -0.25 
Q 13.140625 0.921875 6.890625 3.21875 
L 6.890625 13.375 
Q 12.890625 10.015625 18.65625 8.296875 
Q 24.421875 6.59375 29.984375 6.59375 
Q 38.421875 6.59375 43.015625 9.90625 
Q 47.609375 13.234375 47.609375 19.390625 
Q 47.609375 24.75 44.3125 27.78125 
Q 41.015625 30.8125 33.5 32.328125 
L 27.484375 33.5 
Q 16.453125 35.6875 11.515625 40.375 
Q 6.59375 45.0625 6.59375 53.421875 
Q 6.59375 63.09375 13.40625 68.65625 
Q 20.21875 74.21875 32.171875 74.21875 
Q 37.3125 74.21875 42.625 73.28125 
Q 47.953125 72.359375 53.515625 70.515625 
z
" id="DejaVuSans-83"/>
       <path d="M 5.515625 54.6875 
L 48.1875 54.6875 
L 48.1875 46.484375 
L 14.40625 7.171875 
L 48.1875 7.171875 
L 48.1875 0 
L 4.296875 0 
L 4.296875 8.203125 
L 38.09375 47.515625 
L 5.515625 47.515625 
z
" id="DejaVuSans-122"/>
      </defs>
      <use xlink:href="#DejaVuSans-76"/>
      <use x="55.712891" xlink:href="#DejaVuSans-97"/>
      <use x="116.992188" xlink:href="#DejaVuSans-114"/>
      <use x="156.355469" xlink:href="#DejaVuSans-103"/>
      <use x="219.832031" xlink:href="#DejaVuSans-101"/>
      <use x="281.355469" xlink:href="#DejaVuSans-115"/>
      <use x="333.455078" xlink:href="#DejaVuSans-116"/>
      <use x="372.664062" xlink:href="#DejaVuSans-32"/>
      <use x="404.451172" xlink:href="#DejaVuSans-67"/>
      <use x="474.275391" xlink:href="#DejaVuSans-108"/>
      <use x="502.058594" xlink:href="#DejaVuSans-117"/>
      <use x="565.4375" xlink:href="#DejaVuSans-115"/>
      <use x="617.537109" xlink:href="#DejaVuSans-116"/>
      <use x="656.746094" xlink:href="#DejaVuSans-101"/>
      <use x="718.269531" xlink:href="#DejaVuSans-114"/>
      <use x="759.382812" xlink:href="#DejaVuSans-32"/>
      <use x="791.169922" xlink:href="#DejaVuSans-83"/>
      <use x="854.646484" xlink:href="#DejaVuSans-105"/>
      <use x="882.429688" xlink:href="#DejaVuSans-122"/>
      <use x="934.919922" xlink:href="#DejaVuSans-101"/>
     </g>
    </g>
   </g>
   <g id="LineCollection_1">
    <path clip-path="url(#p83f6802673)" d="M 515.845455 30.176364 
L 515.845455 30.176364 
" style="fill:none;stroke:#b22222;stroke-width:1.5;"/>
    <path clip-path="url(#p83f6802673)" d="M 505.44254 33.194877 
L 505.44254 32.070751 
" style="fill:none;stroke:#b22222;stroke-width:1.5;"/>
    <path clip-path="url(#p83f6802673)" d="M 495.265695 34.742676 
L 495.265695 33.496549 
" style="fill:none;stroke:#b22222;stroke-width:1.5;"/>
    <path clip-path="url(#p83f6802673)" d="M 485.310008 36.560005 
L 485.310008 35.040678 
" style="fill:none;stroke:#b22222;stroke-width:1.5;"/>
    <path clip-path="url(#p83f6802673)" d="M 475.570672 40.793942 
L 475.570672 38.305379 
" style="fill:none;stroke:#b22222;stroke-width:1.5;"/>
    <path clip-path="url(#p83f6802673)" d="M 466.042986 42.754315 
L 466.042986 39.835752 
" style="fill:none;stroke:#b22222;stroke-width:1.5;"/>
    <path clip-path="url(#p83f6802673)" d="M 456.72235 46.367322 
L 456.72235 43.074947 
" style="fill:none;stroke:#b22222;stroke-width:1.5;"/>
    <path clip-path="url(#p83f6802673)" d="M 447.604265 45.779268 
L 447.604265 41.723698 
" style="fill:none;stroke:#b22222;stroke-width:1.5;"/>
    <path clip-path="url(#p83f6802673)" d="M 438.684328 49.552534 
L 438.684328 45.578357 
" style="fill:none;stroke:#b22222;stroke-width:1.5;"/>
    <path clip-path="url(#p83f6802673)" d="M 429.958235 51.863916 
L 429.958235 48.567735 
" style="fill:none;stroke:#b22222;stroke-width:1.5;"/>
    <path clip-path="url(#p83f6802673)" d="M 421.421773 57.949541 
L 421.421773 52.566486 
" style="fill:none;stroke:#b22222;stroke-width:1.5;"/>
    <path clip-path="url(#p83f6802673)" d="M 413.07082 63.043378 
L 413.07082 56.781302 
" style="fill:none;stroke:#b22222;stroke-width:1.5;"/>
    <path clip-path="url(#p83f6802673)" d="M 404.901345 69.750833 
L 404.901345 61.968237 
" style="fill:none;stroke:#b22222;stroke-width:1.5;"/>
    <path clip-path="url(#p83f6802673)" d="M 396.909405 69.542459 
L 396.909405 60.237308 
" style="fill:none;stroke:#b22222;stroke-width:1.5;"/>
    <path clip-path="url(#p83f6802673)" d="M 389.091141 76.258692 
L 389.091141 66.061901 
" style="fill:none;stroke:#b22222;stroke-width:1.5;"/>
    <path clip-path="url(#p83f6802673)" d="M 381.442779 80.269468 
L 381.442779 65.671156 
" style="fill:none;stroke:#b22222;stroke-width:1.5;"/>
    <path clip-path="url(#p83f6802673)" d="M 373.960627 105.837469 
L 373.960627 88.973586 
" style="fill:none;stroke:#b22222;stroke-width:1.5;"/>
    <path clip-path="url(#p83f6802673)" d="M 366.641072 85.074826 
L 366.641072 80.258826 
" style="fill:none;stroke:#b22222;stroke-width:1.5;"/>
    <path clip-path="url(#p83f6802673)" d="M 359.480582 135.572391 
L 359.480582 114.314864 
" style="fill:none;stroke:#b22222;stroke-width:1.5;"/>
    <path clip-path="url(#p83f6802673)" d="M 352.4757 131.663311 
L 352.4757 107.751708 
" style="fill:none;stroke:#b22222;stroke-width:1.5;"/>
    <path clip-path="url(#p83f6802673)" d="M 345.623044 145.859724 
L 345.623044 119.024806 
" style="fill:none;stroke:#b22222;stroke-width:1.5;"/>
    <path clip-path="url(#p83f6802673)" d="M 338.919306 155.446472 
L 338.919306 128.831085 
" style="fill:none;stroke:#b22222;stroke-width:1.5;"/>
    <path clip-path="url(#p83f6802673)" d="M 332.36125 152.428906 
L 332.36125 133.012233 
" style="fill:none;stroke:#b22222;stroke-width:1.5;"/>
    <path clip-path="url(#p83f6802673)" d="M 325.94571 157.817552 
L 325.94571 141.586567 
" style="fill:none;stroke:#b22222;stroke-width:1.5;"/>
    <path clip-path="url(#p83f6802673)" d="M 319.669589 167.591977 
L 319.669589 149.265868 
" style="fill:none;stroke:#b22222;stroke-width:1.5;"/>
    <path clip-path="url(#p83f6802673)" d="M 313.529857 182.642828 
L 313.529857 166.278156 
" style="fill:none;stroke:#b22222;stroke-width:1.5;"/>
    <path clip-path="url(#p83f6802673)" d="M 307.52355 204.130443 
L 307.52355 186.291621 
" style="fill:none;stroke:#b22222;stroke-width:1.5;"/>
    <path clip-path="url(#p83f6802673)" d="M 301.647769 202.186598 
L 301.647769 180.607542 
" style="fill:none;stroke:#b22222;stroke-width:1.5;"/>
    <path clip-path="url(#p83f6802673)" d="M 295.899676 234.908389 
L 295.899676 217.571365 
" style="fill:none;stroke:#b22222;stroke-width:1.5;"/>
    <path clip-path="url(#p83f6802673)" d="M 290.276498 231.148532 
L 290.276498 218.357625 
" style="fill:none;stroke:#b22222;stroke-width:1.5;"/>
    <path clip-path="url(#p83f6802673)" d="M 284.77552 233.386452 
L 284.77552 219.739736 
" style="fill:none;stroke:#b22222;stroke-width:1.5;"/>
    <path clip-path="url(#p83f6802673)" d="M 279.394086 230.277067 
L 279.394086 216.255492 
" style="fill:none;stroke:#b22222;stroke-width:1.5;"/>
    <path clip-path="url(#p83f6802673)" d="M 274.129599 228.944198 
L 274.129599 216.81264 
" style="fill:none;stroke:#b22222;stroke-width:1.5;"/>
    <path clip-path="url(#p83f6802673)" d="M 268.979516 230.435626 
L 268.979516 208.081148 
" style="fill:none;stroke:#b22222;stroke-width:1.5;"/>
    <path clip-path="url(#p83f6802673)" d="M 263.941352 239.75348 
L 263.941352 223.844944 
" style="fill:none;stroke:#b22222;stroke-width:1.5;"/>
    <path clip-path="url(#p83f6802673)" d="M 259.012674 234.63547 
L 259.012674 222.240036 
" style="fill:none;stroke:#b22222;stroke-width:1.5;"/>
    <path clip-path="url(#p83f6802673)" d="M 254.191103 244.264795 
L 254.191103 233.038035 
" style="fill:none;stroke:#b22222;stroke-width:1.5;"/>
    <path clip-path="url(#p83f6802673)" d="M 249.474313 258.905049 
L 249.474313 253.434519 
" style="fill:none;stroke:#b22222;stroke-width:1.5;"/>
    <path clip-path="url(#p83f6802673)" d="M 244.860025 260.090235 
L 244.860025 254.705783 
" style="fill:none;stroke:#b22222;stroke-width:1.5;"/>
    <path clip-path="url(#p83f6802673)" d="M 240.346011 264.154678 
L 240.346011 259.044984 
" style="fill:none;stroke:#b22222;stroke-width:1.5;"/>
    <path clip-path="url(#p83f6802673)" d="M 235.930094 265.487046 
L 235.930094 258.488338 
" style="fill:none;stroke:#b22222;stroke-width:1.5;"/>
    <path clip-path="url(#p83f6802673)" d="M 231.610142 261.648995 
L 231.610142 256.508481 
" style="fill:none;stroke:#b22222;stroke-width:1.5;"/>
    <path clip-path="url(#p83f6802673)" d="M 227.384067 266.072323 
L 227.384067 260.359511 
" style="fill:none;stroke:#b22222;stroke-width:1.5;"/>
    <path clip-path="url(#p83f6802673)" d="M 223.249832 268.942102 
L 223.249832 263.954075 
" style="fill:none;stroke:#b22222;stroke-width:1.5;"/>
    <path clip-path="url(#p83f6802673)" d="M 219.205439 267.639589 
L 219.205439 263.705146 
" style="fill:none;stroke:#b22222;stroke-width:1.5;"/>
    <path clip-path="url(#p83f6802673)" d="M 215.248937 269.363805 
L 215.248937 262.498077 
" style="fill:none;stroke:#b22222;stroke-width:1.5;"/>
    <path clip-path="url(#p83f6802673)" d="M 211.378416 270.190223 
L 211.378416 266.067412 
" style="fill:none;stroke:#b22222;stroke-width:1.5;"/>
    <path clip-path="url(#p83f6802673)" d="M 207.592006 272.112713 
L 207.592006 265.954938 
" style="fill:none;stroke:#b22222;stroke-width:1.5;"/>
    <path clip-path="url(#p83f6802673)" d="M 203.88788 273.953166 
L 203.88788 272.259557 
" style="fill:none;stroke:#b22222;stroke-width:1.5;"/>
    <path clip-path="url(#p83f6802673)" d="M 200.264251 275.078184 
L 200.264251 271.91026 
" style="fill:none;stroke:#b22222;stroke-width:1.5;"/>
    <path clip-path="url(#p83f6802673)" d="M 196.719368 275.095762 
L 196.719368 271.375534 
" style="fill:none;stroke:#b22222;stroke-width:1.5;"/>
    <path clip-path="url(#p83f6802673)" d="M 193.25152 274.500367 
L 193.25152 271.841643 
" style="fill:none;stroke:#b22222;stroke-width:1.5;"/>
    <path clip-path="url(#p83f6802673)" d="M 189.859034 275.771717 
L 189.859034 272.380308 
" style="fill:none;stroke:#b22222;stroke-width:1.5;"/>
    <path clip-path="url(#p83f6802673)" d="M 186.540271 275.021041 
L 186.540271 271.838116 
" style="fill:none;stroke:#b22222;stroke-width:1.5;"/>
    <path clip-path="url(#p83f6802673)" d="M 183.29363 278.594882 
L 183.29363 277.314355 
" style="fill:none;stroke:#b22222;stroke-width:1.5;"/>
    <path clip-path="url(#p83f6802673)" d="M 180.117543 278.363161 
L 180.117543 275.73606 
" style="fill:none;stroke:#b22222;stroke-width:1.5;"/>
    <path clip-path="url(#p83f6802673)" d="M 177.010477 277.727952 
L 177.010477 275.207687 
" style="fill:none;stroke:#b22222;stroke-width:1.5;"/>
    <path clip-path="url(#p83f6802673)" d="M 173.970932 276.827959 
L 173.970932 273.780517 
" style="fill:none;stroke:#b22222;stroke-width:1.5;"/>
    <path clip-path="url(#p83f6802673)" d="M 170.99744 278.219944 
L 170.99744 276.913571 
" style="fill:none;stroke:#b22222;stroke-width:1.5;"/>
    <path clip-path="url(#p83f6802673)" d="M 168.088567 279.720807 
L 168.088567 278.515593 
" style="fill:none;stroke:#b22222;stroke-width:1.5;"/>
    <path clip-path="url(#p83f6802673)" d="M 165.242908 279.136568 
L 165.242908 277.54839 
" style="fill:none;stroke:#b22222;stroke-width:1.5;"/>
    <path clip-path="url(#p83f6802673)" d="M 162.459089 280.273665 
L 162.459089 278.479883 
" style="fill:none;stroke:#b22222;stroke-width:1.5;"/>
    <path clip-path="url(#p83f6802673)" d="M 159.735766 280.862278 
L 159.735766 279.571998 
" style="fill:none;stroke:#b22222;stroke-width:1.5;"/>
    <path clip-path="url(#p83f6802673)" d="M 157.071625 280.349653 
L 157.071625 277.75746 
" style="fill:none;stroke:#b22222;stroke-width:1.5;"/>
    <path clip-path="url(#p83f6802673)" d="M 154.46538 279.591269 
L 154.46538 278.127984 
" style="fill:none;stroke:#b22222;stroke-width:1.5;"/>
    <path clip-path="url(#p83f6802673)" d="M 151.915772 279.909085 
L 151.915772 277.551594 
" style="fill:none;stroke:#b22222;stroke-width:1.5;"/>
    <path clip-path="url(#p83f6802673)" d="M 149.421571 281.768287 
L 149.421571 280.346719 
" style="fill:none;stroke:#b22222;stroke-width:1.5;"/>
    <path clip-path="url(#p83f6802673)" d="M 146.981572 280.979799 
L 146.981572 279.713052 
" style="fill:none;stroke:#b22222;stroke-width:1.5;"/>
    <path clip-path="url(#p83f6802673)" d="M 144.594598 281.899481 
L 144.594598 280.861959 
" style="fill:none;stroke:#b22222;stroke-width:1.5;"/>
    <path clip-path="url(#p83f6802673)" d="M 142.259497 282.673127 
L 142.259497 281.769043 
" style="fill:none;stroke:#b22222;stroke-width:1.5;"/>
    <path clip-path="url(#p83f6802673)" d="M 139.97514 282.55837 
L 139.97514 281.237365 
" style="fill:none;stroke:#b22222;stroke-width:1.5;"/>
    <path clip-path="url(#p83f6802673)" d="M 137.740426 282.285434 
L 137.740426 280.863866 
" style="fill:none;stroke:#b22222;stroke-width:1.5;"/>
    <path clip-path="url(#p83f6802673)" d="M 135.554275 283.370595 
L 135.554275 282.493729 
" style="fill:none;stroke:#b22222;stroke-width:1.5;"/>
    <path clip-path="url(#p83f6802673)" d="M 133.415633 281.706621 
L 133.415633 280.925532 
" style="fill:none;stroke:#b22222;stroke-width:1.5;"/>
    <path clip-path="url(#p83f6802673)" d="M 131.323466 283.137245 
L 131.323466 282.339219 
" style="fill:none;stroke:#b22222;stroke-width:1.5;"/>
    <path clip-path="url(#p83f6802673)" d="M 129.276765 282.581805 
L 129.276765 281.084643 
" style="fill:none;stroke:#b22222;stroke-width:1.5;"/>
    <path clip-path="url(#p83f6802673)" d="M 127.274542 281.865252 
L 127.274542 279.732606 
" style="fill:none;stroke:#b22222;stroke-width:1.5;"/>
    <path clip-path="url(#p83f6802673)" d="M 125.31583 283.583647 
L 125.31583 282.668538 
" style="fill:none;stroke:#b22222;stroke-width:1.5;"/>
    <path clip-path="url(#p83f6802673)" d="M 123.399684 282.823692 
L 123.399684 281.618477 
" style="fill:none;stroke:#b22222;stroke-width:1.5;"/>
    <path clip-path="url(#p83f6802673)" d="M 121.525178 282.747496 
L 121.525178 281.565387 
" style="fill:none;stroke:#b22222;stroke-width:1.5;"/>
    <path clip-path="url(#p83f6802673)" d="M 119.691408 283.866247 
L 119.691408 283.032372 
" style="fill:none;stroke:#b22222;stroke-width:1.5;"/>
    <path clip-path="url(#p83f6802673)" d="M 117.897489 282.972392 
L 117.897489 281.986924 
" style="fill:none;stroke:#b22222;stroke-width:1.5;"/>
    <path clip-path="url(#p83f6802673)" d="M 116.142554 283.948364 
L 116.142554 282.950256 
" style="fill:none;stroke:#b22222;stroke-width:1.5;"/>
    <path clip-path="url(#p83f6802673)" d="M 114.425756 284.190758 
L 114.425756 283.871443 
" style="fill:none;stroke:#b22222;stroke-width:1.5;"/>
    <path clip-path="url(#p83f6802673)" d="M 112.746266 284.163149 
L 112.746266 283.252617 
" style="fill:none;stroke:#b22222;stroke-width:1.5;"/>
    <path clip-path="url(#p83f6802673)" d="M 111.103275 283.918121 
L 111.103275 282.851211 
" style="fill:none;stroke:#b22222;stroke-width:1.5;"/>
    <path clip-path="url(#p83f6802673)" d="M 109.495987 284.111282 
L 109.495987 283.692345 
" style="fill:none;stroke:#b22222;stroke-width:1.5;"/>
    <path clip-path="url(#p83f6802673)" d="M 107.923629 284.286895 
L 107.923629 283.387445 
" style="fill:none;stroke:#b22222;stroke-width:1.5;"/>
    <path clip-path="url(#p83f6802673)" d="M 106.38544 284.68139 
L 106.38544 284.027245 
" style="fill:none;stroke:#b22222;stroke-width:1.5;"/>
    <path clip-path="url(#p83f6802673)" d="M 104.880678 284.612244 
L 104.880678 283.967104 
" style="fill:none;stroke:#b22222;stroke-width:1.5;"/>
    <path clip-path="url(#p83f6802673)" d="M 103.408617 284.334993 
L 103.408617 283.727208 
" style="fill:none;stroke:#b22222;stroke-width:1.5;"/>
    <path clip-path="url(#p83f6802673)" d="M 101.968546 284.392564 
L 101.968546 283.92821 
" style="fill:none;stroke:#b22222;stroke-width:1.5;"/>
    <path clip-path="url(#p83f6802673)" d="M 100.55977 285.185635 
L 100.55977 284.686581 
" style="fill:none;stroke:#b22222;stroke-width:1.5;"/>
    <path clip-path="url(#p83f6802673)" d="M 99.181608 284.868217 
L 99.181608 284.228279 
" style="fill:none;stroke:#b22222;stroke-width:1.5;"/>
    <path clip-path="url(#p83f6802673)" d="M 97.833396 284.323237 
L 97.833396 283.48039 
" style="fill:none;stroke:#b22222;stroke-width:1.5;"/>
    <path clip-path="url(#p83f6802673)" d="M 96.514482 285.271946 
L 96.514482 284.729557 
" style="fill:none;stroke:#b22222;stroke-width:1.5;"/>
    <path clip-path="url(#p83f6802673)" d="M 95.22423 284.22718 
L 95.22423 283.447161 
" style="fill:none;stroke:#b22222;stroke-width:1.5;"/>
    <path clip-path="url(#p83f6802673)" d="M 93.962018 284.693926 
L 93.962018 284.014709 
" style="fill:none;stroke:#b22222;stroke-width:1.5;"/>
    <path clip-path="url(#p83f6802673)" d="M 92.727235 285.127878 
L 92.727235 284.356478 
" style="fill:none;stroke:#b22222;stroke-width:1.5;"/>
    <path clip-path="url(#p83f6802673)" d="M 91.519285 285.527455 
L 91.519285 284.86191 
" style="fill:none;stroke:#b22222;stroke-width:1.5;"/>
   </g>
   <g id="LineCollection_2">
    <path clip-path="url(#p83f6802673)" d="M 90.354545 288.103636 
L 90.354545 288.103636 
" style="fill:none;stroke:#808080;stroke-width:1.5;"/>
    <path clip-path="url(#p83f6802673)" d="M 91.536752 285.627006 
L 91.536752 285.150219 
" style="fill:none;stroke:#808080;stroke-width:1.5;"/>
    <path clip-path="url(#p83f6802673)" d="M 92.745224 285.293575 
L 92.745224 284.966502 
" style="fill:none;stroke:#808080;stroke-width:1.5;"/>
    <path clip-path="url(#p83f6802673)" d="M 93.980544 285.213526 
L 93.980544 284.529404 
" style="fill:none;stroke:#808080;stroke-width:1.5;"/>
    <path clip-path="url(#p83f6802673)" d="M 95.243309 285.541587 
L 95.243309 285.235638 
" style="fill:none;stroke:#808080;stroke-width:1.5;"/>
    <path clip-path="url(#p83f6802673)" d="M 96.534127 285.020243 
L 96.534127 284.5934 
" style="fill:none;stroke:#808080;stroke-width:1.5;"/>
    <path clip-path="url(#p83f6802673)" d="M 97.853624 285.201855 
L 97.853624 284.670362 
" style="fill:none;stroke:#808080;stroke-width:1.5;"/>
    <path clip-path="url(#p83f6802673)" d="M 99.202435 284.920388 
L 99.202435 284.563969 
" style="fill:none;stroke:#808080;stroke-width:1.5;"/>
    <path clip-path="url(#p83f6802673)" d="M 100.581213 284.749212 
L 100.581213 284.08871 
" style="fill:none;stroke:#808080;stroke-width:1.5;"/>
    <path clip-path="url(#p83f6802673)" d="M 101.990622 284.68139 
L 101.990622 284.027245 
" style="fill:none;stroke:#808080;stroke-width:1.5;"/>
    <path clip-path="url(#p83f6802673)" d="M 103.431344 284.290481 
L 103.431344 283.77172 
" style="fill:none;stroke:#808080;stroke-width:1.5;"/>
    <path clip-path="url(#p83f6802673)" d="M 104.904073 284.643824 
L 104.904073 284.194099 
" style="fill:none;stroke:#808080;stroke-width:1.5;"/>
    <path clip-path="url(#p83f6802673)" d="M 106.409522 284.19409 
L 106.409522 283.738824 
" style="fill:none;stroke:#808080;stroke-width:1.5;"/>
    <path clip-path="url(#p83f6802673)" d="M 107.948417 283.838784 
L 107.948417 282.801262 
" style="fill:none;stroke:#808080;stroke-width:1.5;"/>
    <path clip-path="url(#p83f6802673)" d="M 109.521501 284.760894 
L 109.521501 284.206315 
" style="fill:none;stroke:#808080;stroke-width:1.5;"/>
    <path clip-path="url(#p83f6802673)" d="M 111.129533 284.208444 
L 111.129533 283.595183 
" style="fill:none;stroke:#808080;stroke-width:1.5;"/>
    <path clip-path="url(#p83f6802673)" d="M 112.773291 283.677241 
L 112.773291 282.057797 
" style="fill:none;stroke:#808080;stroke-width:1.5;"/>
    <path clip-path="url(#p83f6802673)" d="M 114.453567 284.448962 
L 114.453567 284.001099 
" style="fill:none;stroke:#808080;stroke-width:1.5;"/>
    <path clip-path="url(#p83f6802673)" d="M 116.171174 283.766431 
L 116.171174 282.744328 
" style="fill:none;stroke:#808080;stroke-width:1.5;"/>
    <path clip-path="url(#p83f6802673)" d="M 117.926939 284.045639 
L 117.926939 283.628701 
" style="fill:none;stroke:#808080;stroke-width:1.5;"/>
    <path clip-path="url(#p83f6802673)" d="M 119.721713 283.749806 
L 119.721713 282.760952 
" style="fill:none;stroke:#808080;stroke-width:1.5;"/>
    <path clip-path="url(#p83f6802673)" d="M 121.55636 283.928917 
L 121.55636 282.452554 
" style="fill:none;stroke:#808080;stroke-width:1.5;"/>
    <path clip-path="url(#p83f6802673)" d="M 123.431766 283.603956 
L 123.431766 282.260368 
" style="fill:none;stroke:#808080;stroke-width:1.5;"/>
    <path clip-path="url(#p83f6802673)" d="M 125.348838 284.102778 
L 125.348838 283.442275 
" style="fill:none;stroke:#808080;stroke-width:1.5;"/>
    <path clip-path="url(#p83f6802673)" d="M 127.308501 283.484425 
L 127.308501 282.509187 
" style="fill:none;stroke:#808080;stroke-width:1.5;"/>
    <path clip-path="url(#p83f6802673)" d="M 129.311701 283.468764 
L 129.311701 282.783421 
" style="fill:none;stroke:#808080;stroke-width:1.5;"/>
    <path clip-path="url(#p83f6802673)" d="M 131.359405 283.730903 
L 131.359405 282.909143 
" style="fill:none;stroke:#808080;stroke-width:1.5;"/>
    <path clip-path="url(#p83f6802673)" d="M 133.452603 282.18788 
L 133.452603 281.478568 
" style="fill:none;stroke:#808080;stroke-width:1.5;"/>
    <path clip-path="url(#p83f6802673)" d="M 135.592304 281.398756 
L 135.592304 280.199102 
" style="fill:none;stroke:#808080;stroke-width:1.5;"/>
    <path clip-path="url(#p83f6802673)" d="M 137.779543 282.501149 
L 137.779543 281.682446 
" style="fill:none;stroke:#808080;stroke-width:1.5;"/>
    <path clip-path="url(#p83f6802673)" d="M 140.015374 282.205027 
L 140.015374 280.6857 
" style="fill:none;stroke:#808080;stroke-width:1.5;"/>
    <path clip-path="url(#p83f6802673)" d="M 142.300878 282.899094 
L 142.300878 282.060223 
" style="fill:none;stroke:#808080;stroke-width:1.5;"/>
    <path clip-path="url(#p83f6802673)" d="M 144.637158 282.172357 
L 144.637158 281.10623 
" style="fill:none;stroke:#808080;stroke-width:1.5;"/>
    <path clip-path="url(#p83f6802673)" d="M 147.025343 280.949735 
L 147.025343 279.355255 
" style="fill:none;stroke:#808080;stroke-width:1.5;"/>
    <path clip-path="url(#p83f6802673)" d="M 149.466585 282.155979 
L 149.466585 281.251895 
" style="fill:none;stroke:#808080;stroke-width:1.5;"/>
    <path clip-path="url(#p83f6802673)" d="M 151.962064 282.23205 
L 151.962064 280.658677 
" style="fill:none;stroke:#808080;stroke-width:1.5;"/>
    <path clip-path="url(#p83f6802673)" d="M 154.512983 281.294184 
L 154.512983 279.140093 
" style="fill:none;stroke:#808080;stroke-width:1.5;"/>
    <path clip-path="url(#p83f6802673)" d="M 157.120575 281.346926 
L 157.120575 280.638793 
" style="fill:none;stroke:#808080;stroke-width:1.5;"/>
    <path clip-path="url(#p83f6802673)" d="M 159.7861 282.071326 
L 159.7861 280.560827 
" style="fill:none;stroke:#808080;stroke-width:1.5;"/>
    <path clip-path="url(#p83f6802673)" d="M 162.510843 281.80002 
L 162.510843 281.090707 
" style="fill:none;stroke:#808080;stroke-width:1.5;"/>
    <path clip-path="url(#p83f6802673)" d="M 165.296121 280.16196 
L 165.296121 277.945153 
" style="fill:none;stroke:#808080;stroke-width:1.5;"/>
    <path clip-path="url(#p83f6802673)" d="M 168.143279 280.049604 
L 168.143279 277.411075 
" style="fill:none;stroke:#808080;stroke-width:1.5;"/>
    <path clip-path="url(#p83f6802673)" d="M 171.05369 279.077257 
L 171.05369 277.219841 
" style="fill:none;stroke:#808080;stroke-width:1.5;"/>
    <path clip-path="url(#p83f6802673)" d="M 174.028762 278.394025 
L 174.028762 274.929475 
" style="fill:none;stroke:#808080;stroke-width:1.5;"/>
    <path clip-path="url(#p83f6802673)" d="M 177.069929 278.214484 
L 177.069929 276.272597 
" style="fill:none;stroke:#808080;stroke-width:1.5;"/>
    <path clip-path="url(#p83f6802673)" d="M 180.178661 278.254705 
L 180.178661 275.585942 
" style="fill:none;stroke:#808080;stroke-width:1.5;"/>
    <path clip-path="url(#p83f6802673)" d="M 183.356459 279.054054 
L 183.356459 275.691601 
" style="fill:none;stroke:#808080;stroke-width:1.5;"/>
    <path clip-path="url(#p83f6802673)" d="M 186.604857 276.388385 
L 186.604857 273.83223 
" style="fill:none;stroke:#808080;stroke-width:1.5;"/>
    <path clip-path="url(#p83f6802673)" d="M 189.925423 275.843435 
L 189.925423 272.050017 
" style="fill:none;stroke:#808080;stroke-width:1.5;"/>
    <path clip-path="url(#p83f6802673)" d="M 193.319761 273.936256 
L 193.319761 271.112885 
" style="fill:none;stroke:#808080;stroke-width:1.5;"/>
    <path clip-path="url(#p83f6802673)" d="M 196.78951 275.054818 
L 196.78951 271.804339 
" style="fill:none;stroke:#808080;stroke-width:1.5;"/>
    <path clip-path="url(#p83f6802673)" d="M 200.336345 272.955271 
L 200.336345 269.508133 
" style="fill:none;stroke:#808080;stroke-width:1.5;"/>
    <path clip-path="url(#p83f6802673)" d="M 203.961979 273.431978 
L 203.961979 268.902139 
" style="fill:none;stroke:#808080;stroke-width:1.5;"/>
    <path clip-path="url(#p83f6802673)" d="M 207.668162 274.538461 
L 207.668162 271.544975 
" style="fill:none;stroke:#808080;stroke-width:1.5;"/>
    <path clip-path="url(#p83f6802673)" d="M 211.456684 273.826232 
L 211.456684 268.637172 
" style="fill:none;stroke:#808080;stroke-width:1.5;"/>
    <path clip-path="url(#p83f6802673)" d="M 215.329375 271.510982 
L 215.329375 267.978824 
" style="fill:none;stroke:#808080;stroke-width:1.5;"/>
    <path clip-path="url(#p83f6802673)" d="M 219.288104 272.784466 
L 219.288104 269.937512 
" style="fill:none;stroke:#808080;stroke-width:1.5;"/>
    <path clip-path="url(#p83f6802673)" d="M 223.334782 270.059641 
L 223.334782 263.612257 
" style="fill:none;stroke:#808080;stroke-width:1.5;"/>
    <path clip-path="url(#p83f6802673)" d="M 227.471364 264.578542 
L 227.471364 258.362547 
" style="fill:none;stroke:#808080;stroke-width:1.5;"/>
    <path clip-path="url(#p83f6802673)" d="M 231.699847 265.173422 
L 231.699847 260.999839 
" style="fill:none;stroke:#808080;stroke-width:1.5;"/>
    <path clip-path="url(#p83f6802673)" d="M 236.022273 267.179158 
L 236.022273 262.226274 
" style="fill:none;stroke:#808080;stroke-width:1.5;"/>
    <path clip-path="url(#p83f6802673)" d="M 240.440728 265.422586 
L 240.440728 260.233527 
" style="fill:none;stroke:#808080;stroke-width:1.5;"/>
    <path clip-path="url(#p83f6802673)" d="M 244.957347 256.910856 
L 244.957347 249.998663 
" style="fill:none;stroke:#808080;stroke-width:1.5;"/>
    <path clip-path="url(#p83f6802673)" d="M 249.57431 258.776395 
L 249.57431 250.848148 
" style="fill:none;stroke:#808080;stroke-width:1.5;"/>
    <path clip-path="url(#p83f6802673)" d="M 254.293846 259.069306 
L 254.293846 254.692416 
" style="fill:none;stroke:#808080;stroke-width:1.5;"/>
    <path clip-path="url(#p83f6802673)" d="M 259.118235 256.13101 
L 259.118235 242.762724 
" style="fill:none;stroke:#808080;stroke-width:1.5;"/>
    <path clip-path="url(#p83f6802673)" d="M 264.049805 251.413153 
L 264.049805 237.525494 
" style="fill:none;stroke:#808080;stroke-width:1.5;"/>
    <path clip-path="url(#p83f6802673)" d="M 269.090938 246.164143 
L 269.090938 236.956595 
" style="fill:none;stroke:#808080;stroke-width:1.5;"/>
    <path clip-path="url(#p83f6802673)" d="M 274.244069 236.200021 
L 274.244069 222.226929 
" style="fill:none;stroke:#808080;stroke-width:1.5;"/>
    <path clip-path="url(#p83f6802673)" d="M 279.511684 234.395662 
L 279.511684 220.928402 
" style="fill:none;stroke:#808080;stroke-width:1.5;"/>
    <path clip-path="url(#p83f6802673)" d="M 284.896329 227.756509 
L 284.896329 215.414591 
" style="fill:none;stroke:#808080;stroke-width:1.5;"/>
    <path clip-path="url(#p83f6802673)" d="M 290.400602 241.249913 
L 290.400602 225.322108 
" style="fill:none;stroke:#808080;stroke-width:1.5;"/>
    <path clip-path="url(#p83f6802673)" d="M 296.027161 235.494726 
L 296.027161 220.217199 
" style="fill:none;stroke:#808080;stroke-width:1.5;"/>
    <path clip-path="url(#p83f6802673)" d="M 301.778724 229.345637 
L 301.778724 216.4112 
" style="fill:none;stroke:#808080;stroke-width:1.5;"/>
    <path clip-path="url(#p83f6802673)" d="M 307.658068 225.859815 
L 307.658068 209.2955 
" style="fill:none;stroke:#808080;stroke-width:1.5;"/>
    <path clip-path="url(#p83f6802673)" d="M 313.66803 209.92605 
L 313.66803 188.511799 
" style="fill:none;stroke:#808080;stroke-width:1.5;"/>
    <path clip-path="url(#p83f6802673)" d="M 319.811514 184.918272 
L 319.811514 164.002712 
" style="fill:none;stroke:#808080;stroke-width:1.5;"/>
    <path clip-path="url(#p83f6802673)" d="M 326.091486 144.92832 
L 326.091486 133.660616 
" style="fill:none;stroke:#808080;stroke-width:1.5;"/>
    <path clip-path="url(#p83f6802673)" d="M 332.510977 165.238901 
L 332.510977 140.500274 
" style="fill:none;stroke:#808080;stroke-width:1.5;"/>
    <path clip-path="url(#p83f6802673)" d="M 339.073088 139.51873 
L 339.073088 123.038636 
" style="fill:none;stroke:#808080;stroke-width:1.5;"/>
    <path clip-path="url(#p83f6802673)" d="M 345.780987 137.699036 
L 345.780987 116.454684 
" style="fill:none;stroke:#808080;stroke-width:1.5;"/>
    <path clip-path="url(#p83f6802673)" d="M 352.637913 134.170773 
L 352.637913 113.001457 
" style="fill:none;stroke:#808080;stroke-width:1.5;"/>
    <path clip-path="url(#p83f6802673)" d="M 359.647177 122.247277 
L 359.647177 101.394746 
" style="fill:none;stroke:#808080;stroke-width:1.5;"/>
    <path clip-path="url(#p83f6802673)" d="M 366.812164 93.676464 
L 366.812164 83.939439 
" style="fill:none;stroke:#808080;stroke-width:1.5;"/>
    <path clip-path="url(#p83f6802673)" d="M 374.136332 118.294938 
L 374.136332 91.513392 
" style="fill:none;stroke:#808080;stroke-width:1.5;"/>
    <path clip-path="url(#p83f6802673)" d="M 381.623219 95.176938 
L 381.623219 80.241089 
" style="fill:none;stroke:#808080;stroke-width:1.5;"/>
    <path clip-path="url(#p83f6802673)" d="M 389.276439 71.228529 
L 389.276439 65.403442 
" style="fill:none;stroke:#808080;stroke-width:1.5;"/>
    <path clip-path="url(#p83f6802673)" d="M 397.099689 81.21175 
L 397.099689 68.99534 
" style="fill:none;stroke:#808080;stroke-width:1.5;"/>
    <path clip-path="url(#p83f6802673)" d="M 405.096744 60.660177 
L 405.096744 53.734455 
" style="fill:none;stroke:#808080;stroke-width:1.5;"/>
    <path clip-path="url(#p83f6802673)" d="M 413.271467 66.637564 
L 413.271467 60.297893 
" style="fill:none;stroke:#808080;stroke-width:1.5;"/>
    <path clip-path="url(#p83f6802673)" d="M 421.627806 54.488746 
L 421.627806 50.338659 
" style="fill:none;stroke:#808080;stroke-width:1.5;"/>
    <path clip-path="url(#p83f6802673)" d="M 430.169794 56.57686 
L 430.169794 51.74129 
" style="fill:none;stroke:#808080;stroke-width:1.5;"/>
    <path clip-path="url(#p83f6802673)" d="M 438.901556 51.70538 
L 438.901556 47.304117 
" style="fill:none;stroke:#808080;stroke-width:1.5;"/>
    <path clip-path="url(#p83f6802673)" d="M 447.827309 46.664223 
L 447.827309 42.907333 
" style="fill:none;stroke:#808080;stroke-width:1.5;"/>
    <path clip-path="url(#p83f6802673)" d="M 456.951363 46.58391 
L 456.951363 42.341212 
" style="fill:none;stroke:#808080;stroke-width:1.5;"/>
    <path clip-path="url(#p83f6802673)" d="M 466.278122 43.818549 
L 466.278122 40.193672 
" style="fill:none;stroke:#808080;stroke-width:1.5;"/>
    <path clip-path="url(#p83f6802673)" d="M 475.81209 41.361081 
L 475.81209 38.384674 
" style="fill:none;stroke:#808080;stroke-width:1.5;"/>
    <path clip-path="url(#p83f6802673)" d="M 485.557871 39.006718 
L 485.557871 36.343284 
" style="fill:none;stroke:#808080;stroke-width:1.5;"/>
    <path clip-path="url(#p83f6802673)" d="M 495.520171 35.915301 
L 495.520171 34.004653 
" style="fill:none;stroke:#808080;stroke-width:1.5;"/>
    <path clip-path="url(#p83f6802673)" d="M 505.7038 35.88729 
L 505.7038 34.291238 
" style="fill:none;stroke:#808080;stroke-width:1.5;"/>
   </g>
   <g id="line2d_16">
    <path clip-path="url(#p83f6802673)" d="M 515.845455 30.176364 
L 505.44254 32.632814 
L 495.265695 34.119613 
L 485.310008 35.800342 
L 475.570672 39.549661 
L 466.042986 41.295033 
L 456.72235 44.721135 
L 447.604265 43.751483 
L 438.684328 47.565445 
L 429.958235 50.215826 
L 421.421773 55.258013 
L 413.07082 59.91234 
L 404.901345 65.859535 
L 396.909405 64.889884 
L 389.091141 71.160296 
L 381.442779 72.970312 
L 373.960627 97.405527 
L 366.641072 82.666826 
L 359.480582 124.943627 
L 352.4757 119.70751 
L 345.623044 132.442265 
L 338.919306 142.138779 
L 332.36125 142.72057 
L 325.94571 149.70206 
L 319.669589 158.428922 
L 313.529857 174.460492 
L 307.52355 195.211032 
L 301.647769 191.39707 
L 295.899676 226.239877 
L 290.276498 224.753078 
L 284.77552 226.563094 
L 279.394086 223.266279 
L 274.129599 222.878419 
L 268.979516 219.258387 
L 263.941352 231.799212 
L 259.012674 228.437753 
L 254.191103 238.651415 
L 249.474313 256.169784 
L 244.860025 257.398009 
L 240.346011 261.599831 
L 235.930094 261.987692 
L 231.610142 259.078738 
L 227.384067 263.215917 
L 223.249832 266.448088 
L 219.205439 265.672367 
L 215.248937 265.930941 
L 211.378416 268.128817 
L 207.592006 269.033825 
L 203.88788 273.106361 
L 200.264251 273.494222 
L 196.719368 273.235648 
L 193.25152 273.171005 
L 189.859034 274.076013 
L 186.540271 273.429578 
L 183.29363 277.954618 
L 180.117543 277.04961 
L 177.010477 276.46782 
L 173.970932 275.304238 
L 170.99744 277.566758 
L 168.088567 279.1182 
L 165.242908 278.342479 
L 162.459089 279.376774 
L 159.735766 280.217138 
L 157.071625 279.053557 
L 154.46538 278.859626 
L 151.915772 278.730339 
L 149.421571 281.057503 
L 146.981572 280.346425 
L 144.594598 281.38072 
L 142.259497 282.221085 
L 139.97514 281.897867 
L 137.740426 281.57465 
L 135.554275 282.932162 
L 133.415633 281.316077 
L 131.323466 282.738232 
L 129.276765 281.833224 
L 127.274542 280.798929 
L 125.31583 283.126093 
L 123.399684 282.221085 
L 121.525178 282.156441 
L 119.691408 283.44931 
L 117.897489 282.479658 
L 116.142554 283.44931 
L 114.425756 284.0311 
L 112.746266 283.707883 
L 111.103275 283.384666 
L 109.495987 283.901814 
L 107.923629 283.83717 
L 106.38544 284.354318 
L 104.880678 284.289674 
L 103.408617 284.0311 
L 101.968546 284.160387 
L 100.55977 284.936108 
L 99.181608 284.548248 
L 97.833396 283.901814 
L 96.514482 285.000752 
L 95.22423 283.83717 
L 93.962018 284.354318 
L 92.727235 284.742178 
L 91.519285 285.194682 
" style="fill:none;stroke:#b22222;stroke-linecap:square;stroke-width:1.5;"/>
   </g>
   <g id="line2d_17">
    <path clip-path="url(#p83f6802673)" d="M 90.354545 288.103636 
L 91.536752 285.388612 
L 92.745224 285.130039 
L 93.980544 284.871465 
L 95.243309 285.388612 
L 96.534127 284.806822 
L 97.853624 284.936108 
L 99.202435 284.742178 
L 100.581213 284.418961 
L 101.990622 284.354318 
L 103.431344 284.0311 
L 104.904073 284.418961 
L 106.409522 283.966457 
L 107.948417 283.320023 
L 109.521501 284.483604 
L 111.129533 283.901814 
L 112.773291 282.867519 
L 114.453567 284.225031 
L 116.171174 283.255379 
L 117.926939 283.83717 
L 119.721713 283.255379 
L 121.55636 283.190736 
L 123.431766 282.932162 
L 125.348838 283.772527 
L 127.308501 282.996806 
L 129.311701 283.126093 
L 131.359405 283.320023 
L 133.452603 281.833224 
L 135.592304 280.798929 
L 137.779543 282.091798 
L 140.015374 281.445363 
L 142.300878 282.479658 
L 144.637158 281.639294 
L 147.025343 280.152495 
L 149.466585 281.703937 
L 151.962064 281.445363 
L 154.512983 280.217138 
L 157.120575 280.992859 
L 159.7861 281.316077 
L 162.510843 281.445363 
L 165.296121 279.053557 
L 168.143279 278.730339 
L 171.05369 278.148549 
L 174.028762 276.66175 
L 177.069929 277.243541 
L 180.178661 276.920324 
L 183.356459 277.372828 
L 186.604857 275.110308 
L 189.925423 273.946726 
L 193.319761 272.524571 
L 196.78951 273.429578 
L 200.336345 271.231702 
L 203.961979 271.167059 
L 207.668162 273.041718 
L 211.456684 271.231702 
L 215.329375 269.744903 
L 219.288104 271.360989 
L 223.334782 266.835949 
L 227.471364 261.470545 
L 231.699847 263.08663 
L 236.022273 264.702716 
L 240.440728 262.828057 
L 244.957347 253.45476 
L 249.57431 254.812272 
L 254.293846 256.880861 
L 259.118235 249.446867 
L 264.049805 244.469323 
L 269.090938 241.560369 
L 274.244069 229.213475 
L 279.511684 227.662032 
L 284.896329 221.58555 
L 290.400602 233.28601 
L 296.027161 227.855963 
L 301.778724 222.878419 
L 307.658068 217.577658 
L 313.66803 199.218925 
L 319.811514 174.460492 
L 326.091486 139.294468 
L 332.510977 152.869588 
L 339.073088 131.278683 
L 345.780987 127.07686 
L 352.637913 123.586115 
L 359.647177 111.821012 
L 366.812164 88.807952 
L 374.136332 104.904165 
L 381.623219 87.709013 
L 389.276439 68.315985 
L 397.099689 75.103545 
L 405.096744 57.197316 
L 413.271467 63.467728 
L 421.627806 52.413702 
L 430.169794 54.159075 
L 438.901556 49.504748 
L 447.827309 44.785778 
L 456.951363 44.462561 
L 466.278122 42.006111 
L 475.81209 39.872878 
L 485.557871 37.675001 
L 495.520171 34.959977 
L 505.7038 35.089264 
" style="fill:none;stroke:#808080;stroke-linecap:square;stroke-width:1.5;"/>
   </g>
   <g id="patch_3">
    <path d="M 69.08 301 
L 69.08 17.28 
" style="fill:none;stroke:#000000;stroke-linecap:square;stroke-linejoin:miter;stroke-width:0.8;"/>
   </g>
   <g id="patch_4">
    <path d="M 537.12 301 
L 537.12 17.28 
" style="fill:none;stroke:#000000;stroke-linecap:square;stroke-linejoin:miter;stroke-width:0.8;"/>
   </g>
   <g id="patch_5">
    <path d="M 69.08 301 
L 537.12 301 
" style="fill:none;stroke:#000000;stroke-linecap:square;stroke-linejoin:miter;stroke-width:0.8;"/>
   </g>
   <g id="patch_6">
    <path d="M 69.08 17.28 
L 537.12 17.28 
" style="fill:none;stroke:#000000;stroke-linecap:square;stroke-linejoin:miter;stroke-width:0.8;"/>
   </g>
   <g id="legend_1">
    <g id="patch_7">
     <path d="M 80.28 77.05 
L 224.6825 77.05 
Q 227.8825 77.05 227.8825 73.85 
L 227.8825 28.48 
Q 227.8825 25.28 224.6825 25.28 
L 80.28 25.28 
Q 77.08 25.28 77.08 28.48 
L 77.08 73.85 
Q 77.08 77.05 80.28 77.05 
z
" style="fill:#ffffff;opacity:0.8;stroke:#cccccc;stroke-linejoin:miter;"/>
    </g>
    <g id="LineCollection_3">
     <path d="M 99.48 46.2375 
L 99.48 30.2375 
" style="fill:none;stroke:#b22222;stroke-width:1.5;"/>
    </g>
    <g id="line2d_18">
     <path d="M 83.48 38.2375 
L 115.48 38.2375 
" style="fill:none;stroke:#b22222;stroke-linecap:square;stroke-width:1.5;"/>
    </g>
    <g id="line2d_19"/>
    <g id="text_18">
     <!-- Expansion -->
     <g transform="translate(128.28 43.8375)scale(0.16 -0.16)">
      <defs>
       <path d="M 9.8125 72.90625 
L 55.90625 72.90625 
L 55.90625 64.59375 
L 19.671875 64.59375 
L 19.671875 43.015625 
L 54.390625 43.015625 
L 54.390625 34.71875 
L 19.671875 34.71875 
L 19.671875 8.296875 
L 56.78125 8.296875 
L 56.78125 0 
L 9.8125 0 
z
" id="DejaVuSans-69"/>
       <path d="M 54.890625 54.6875 
L 35.109375 28.078125 
L 55.90625 0 
L 45.3125 0 
L 29.390625 21.484375 
L 13.484375 0 
L 2.875 0 
L 24.125 28.609375 
L 4.6875 54.6875 
L 15.28125 54.6875 
L 29.78125 35.203125 
L 44.28125 54.6875 
z
" id="DejaVuSans-120"/>
       <path d="M 18.109375 8.203125 
L 18.109375 -20.796875 
L 9.078125 -20.796875 
L 9.078125 54.6875 
L 18.109375 54.6875 
L 18.109375 46.390625 
Q 20.953125 51.265625 25.265625 53.625 
Q 29.59375 56 35.59375 56 
Q 45.5625 56 51.78125 48.09375 
Q 58.015625 40.1875 58.015625 27.296875 
Q 58.015625 14.40625 51.78125 6.484375 
Q 45.5625 -1.421875 35.59375 -1.421875 
Q 29.59375 -1.421875 25.265625 0.953125 
Q 20.953125 3.328125 18.109375 8.203125 
z
M 48.6875 27.296875 
Q 48.6875 37.203125 44.609375 42.84375 
Q 40.53125 48.484375 33.40625 48.484375 
Q 26.265625 48.484375 22.1875 42.84375 
Q 18.109375 37.203125 18.109375 27.296875 
Q 18.109375 17.390625 22.1875 11.75 
Q 26.265625 6.109375 33.40625 6.109375 
Q 40.53125 6.109375 44.609375 11.75 
Q 48.6875 17.390625 48.6875 27.296875 
z
" id="DejaVuSans-112"/>
      </defs>
      <use xlink:href="#DejaVuSans-69"/>
      <use x="63.183594" xlink:href="#DejaVuSans-120"/>
      <use x="122.363281" xlink:href="#DejaVuSans-112"/>
      <use x="185.839844" xlink:href="#DejaVuSans-97"/>
      <use x="247.119141" xlink:href="#DejaVuSans-110"/>
      <use x="310.498047" xlink:href="#DejaVuSans-115"/>
      <use x="362.597656" xlink:href="#DejaVuSans-105"/>
      <use x="390.380859" xlink:href="#DejaVuSans-111"/>
      <use x="451.5625" xlink:href="#DejaVuSans-110"/>
     </g>
    </g>
    <g id="LineCollection_4">
     <path d="M 99.48 69.7225 
L 99.48 53.7225 
" style="fill:none;stroke:#808080;stroke-width:1.5;"/>
    </g>
    <g id="line2d_20">
     <path d="M 83.48 61.7225 
L 115.48 61.7225 
" style="fill:none;stroke:#808080;stroke-linecap:square;stroke-width:1.5;"/>
    </g>
    <g id="line2d_21"/>
    <g id="text_19">
     <!-- Contraction -->
     <g transform="translate(128.28 67.3225)scale(0.16 -0.16)">
      <use xlink:href="#DejaVuSans-67"/>
      <use x="69.824219" xlink:href="#DejaVuSans-111"/>
      <use x="131.005859" xlink:href="#DejaVuSans-110"/>
      <use x="194.384766" xlink:href="#DejaVuSans-116"/>
      <use x="233.59375" xlink:href="#DejaVuSans-114"/>
      <use x="274.707031" xlink:href="#DejaVuSans-97"/>
      <use x="335.986328" xlink:href="#DejaVuSans-99"/>
      <use x="390.966797" xlink:href="#DejaVuSans-116"/>
      <use x="430.175781" xlink:href="#DejaVuSans-105"/>
      <use x="457.958984" xlink:href="#DejaVuSans-111"/>
      <use x="519.140625" xlink:href="#DejaVuSans-110"/>
     </g>
    </g>
   </g>
  </g>
 </g>
 <defs>
  <clipPath id="p83f6802673">
   <rect height="283.72" width="468.04" x="69.08" y="17.28"/>
  </clipPath>
 </defs>
</svg>
