<?xml version="1.0" encoding="utf-8" standalone="no"?>
<!DOCTYPE svg PUBLIC "-//W3C//DTD SVG 1.1//EN"
  "http://www.w3.org/Graphics/SVG/1.1/DTD/svg11.dtd">
<!-- Created with matplotlib (https://matplotlib.org/) -->
<svg height="345.6pt" version="1.1" viewBox="0 0 460.8 345.6" width="460.8pt" xmlns="http://www.w3.org/2000/svg" xmlns:xlink="http://www.w3.org/1999/xlink">
 <metadata>
  <rdf:RDF xmlns:cc="http://creativecommons.org/ns#" xmlns:dc="http://purl.org/dc/elements/1.1/" xmlns:rdf="http://www.w3.org/1999/02/22-rdf-syntax-ns#">
   <cc:Work>
    <dc:type rdf:resource="http://purl.org/dc/dcmitype/StillImage"/>
    <dc:date>2023-01-25T11:55:42.364835</dc:date>
    <dc:format>image/svg+xml</dc:format>
    <dc:creator>
     <cc:Agent>
      <dc:title>Matplotlib v3.3.2, https://matplotlib.org/</dc:title>
     </cc:Agent>
    </dc:creator>
   </cc:Work>
  </rdf:RDF>
 </metadata>
 <defs>
  <style type="text/css">*{stroke-linecap:butt;stroke-linejoin:round;}</style>
 </defs>
 <g id="figure_1">
  <g id="patch_1">
   <path d="M 0 345.6 
L 460.8 345.6 
L 460.8 0 
L 0 0 
z
" style="fill:none;"/>
  </g>
  <g id="axes_1">
   <g id="patch_2">
    <path d="M 69.08 286.6 
L 443.52 286.6 
L 443.52 17.28 
L 69.08 17.28 
z
" style="fill:none;"/>
   </g>
   <g id="matplotlib.axis_1">
    <g id="xtick_1">
     <g id="line2d_1">
      <defs>
       <path d="M 0 0 
L 0 3.5 
" id="m21e9ada091" style="stroke:#000000;stroke-width:0.8;"/>
      </defs>
      <g>
       <use style="stroke:#000000;stroke-width:0.8;" x="128.654665" xlink:href="#m21e9ada091" y="286.6"/>
      </g>
     </g>
     <g id="text_1">
      <!-- 0.2 -->
      <g transform="translate(115.932165 305.7575)scale(0.16 -0.16)">
       <defs>
        <path d="M 31.78125 66.40625 
Q 24.171875 66.40625 20.328125 58.90625 
Q 16.5 51.421875 16.5 36.375 
Q 16.5 21.390625 20.328125 13.890625 
Q 24.171875 6.390625 31.78125 6.390625 
Q 39.453125 6.390625 43.28125 13.890625 
Q 47.125 21.390625 47.125 36.375 
Q 47.125 51.421875 43.28125 58.90625 
Q 39.453125 66.40625 31.78125 66.40625 
z
M 31.78125 74.21875 
Q 44.046875 74.21875 50.515625 64.515625 
Q 56.984375 54.828125 56.984375 36.375 
Q 56.984375 17.96875 50.515625 8.265625 
Q 44.046875 -1.421875 31.78125 -1.421875 
Q 19.53125 -1.421875 13.0625 8.265625 
Q 6.59375 17.96875 6.59375 36.375 
Q 6.59375 54.828125 13.0625 64.515625 
Q 19.53125 74.21875 31.78125 74.21875 
z
" id="DejaVuSans-48"/>
        <path d="M 10.6875 12.40625 
L 21 12.40625 
L 21 0 
L 10.6875 0 
z
" id="DejaVuSans-46"/>
        <path d="M 19.1875 8.296875 
L 53.609375 8.296875 
L 53.609375 0 
L 7.328125 0 
L 7.328125 8.296875 
Q 12.9375 14.109375 22.625 23.890625 
Q 32.328125 33.6875 34.8125 36.53125 
Q 39.546875 41.84375 41.421875 45.53125 
Q 43.3125 49.21875 43.3125 52.78125 
Q 43.3125 58.59375 39.234375 62.25 
Q 35.15625 65.921875 28.609375 65.921875 
Q 23.96875 65.921875 18.8125 64.3125 
Q 13.671875 62.703125 7.8125 59.421875 
L 7.8125 69.390625 
Q 13.765625 71.78125 18.9375 73 
Q 24.125 74.21875 28.421875 74.21875 
Q 39.75 74.21875 46.484375 68.546875 
Q 53.21875 62.890625 53.21875 53.421875 
Q 53.21875 48.921875 51.53125 44.890625 
Q 49.859375 40.875 45.40625 35.40625 
Q 44.1875 33.984375 37.640625 27.21875 
Q 31.109375 20.453125 19.1875 8.296875 
z
" id="DejaVuSans-50"/>
       </defs>
       <use xlink:href="#DejaVuSans-48"/>
       <use x="63.623047" xlink:href="#DejaVuSans-46"/>
       <use x="95.410156" xlink:href="#DejaVuSans-50"/>
      </g>
     </g>
    </g>
    <g id="xtick_2">
     <g id="line2d_2">
      <g>
       <use style="stroke:#000000;stroke-width:0.8;" x="213.801424" xlink:href="#m21e9ada091" y="286.6"/>
      </g>
     </g>
     <g id="text_2">
      <!-- 0.4 -->
      <g transform="translate(201.078924 305.7575)scale(0.16 -0.16)">
       <defs>
        <path d="M 37.796875 64.3125 
L 12.890625 25.390625 
L 37.796875 25.390625 
z
M 35.203125 72.90625 
L 47.609375 72.90625 
L 47.609375 25.390625 
L 58.015625 25.390625 
L 58.015625 17.1875 
L 47.609375 17.1875 
L 47.609375 0 
L 37.796875 0 
L 37.796875 17.1875 
L 4.890625 17.1875 
L 4.890625 26.703125 
z
" id="DejaVuSans-52"/>
       </defs>
       <use xlink:href="#DejaVuSans-48"/>
       <use x="63.623047" xlink:href="#DejaVuSans-46"/>
       <use x="95.410156" xlink:href="#DejaVuSans-52"/>
      </g>
     </g>
    </g>
    <g id="xtick_3">
     <g id="line2d_3">
      <g>
       <use style="stroke:#000000;stroke-width:0.8;" x="298.948183" xlink:href="#m21e9ada091" y="286.6"/>
      </g>
     </g>
     <g id="text_3">
      <!-- 0.6 -->
      <g transform="translate(286.225683 305.7575)scale(0.16 -0.16)">
       <defs>
        <path d="M 33.015625 40.375 
Q 26.375 40.375 22.484375 35.828125 
Q 18.609375 31.296875 18.609375 23.390625 
Q 18.609375 15.53125 22.484375 10.953125 
Q 26.375 6.390625 33.015625 6.390625 
Q 39.65625 6.390625 43.53125 10.953125 
Q 47.40625 15.53125 47.40625 23.390625 
Q 47.40625 31.296875 43.53125 35.828125 
Q 39.65625 40.375 33.015625 40.375 
z
M 52.59375 71.296875 
L 52.59375 62.3125 
Q 48.875 64.0625 45.09375 64.984375 
Q 41.3125 65.921875 37.59375 65.921875 
Q 27.828125 65.921875 22.671875 59.328125 
Q 17.53125 52.734375 16.796875 39.40625 
Q 19.671875 43.65625 24.015625 45.921875 
Q 28.375 48.1875 33.59375 48.1875 
Q 44.578125 48.1875 50.953125 41.515625 
Q 57.328125 34.859375 57.328125 23.390625 
Q 57.328125 12.15625 50.6875 5.359375 
Q 44.046875 -1.421875 33.015625 -1.421875 
Q 20.359375 -1.421875 13.671875 8.265625 
Q 6.984375 17.96875 6.984375 36.375 
Q 6.984375 53.65625 15.1875 63.9375 
Q 23.390625 74.21875 37.203125 74.21875 
Q 40.921875 74.21875 44.703125 73.484375 
Q 48.484375 72.75 52.59375 71.296875 
z
" id="DejaVuSans-54"/>
       </defs>
       <use xlink:href="#DejaVuSans-48"/>
       <use x="63.623047" xlink:href="#DejaVuSans-46"/>
       <use x="95.410156" xlink:href="#DejaVuSans-54"/>
      </g>
     </g>
    </g>
    <g id="xtick_4">
     <g id="line2d_4">
      <g>
       <use style="stroke:#000000;stroke-width:0.8;" x="384.094943" xlink:href="#m21e9ada091" y="286.6"/>
      </g>
     </g>
     <g id="text_4">
      <!-- 0.8 -->
      <g transform="translate(371.372443 305.7575)scale(0.16 -0.16)">
       <defs>
        <path d="M 31.78125 34.625 
Q 24.75 34.625 20.71875 30.859375 
Q 16.703125 27.09375 16.703125 20.515625 
Q 16.703125 13.921875 20.71875 10.15625 
Q 24.75 6.390625 31.78125 6.390625 
Q 38.8125 6.390625 42.859375 10.171875 
Q 46.921875 13.96875 46.921875 20.515625 
Q 46.921875 27.09375 42.890625 30.859375 
Q 38.875 34.625 31.78125 34.625 
z
M 21.921875 38.8125 
Q 15.578125 40.375 12.03125 44.71875 
Q 8.5 49.078125 8.5 55.328125 
Q 8.5 64.0625 14.71875 69.140625 
Q 20.953125 74.21875 31.78125 74.21875 
Q 42.671875 74.21875 48.875 69.140625 
Q 55.078125 64.0625 55.078125 55.328125 
Q 55.078125 49.078125 51.53125 44.71875 
Q 48 40.375 41.703125 38.8125 
Q 48.828125 37.15625 52.796875 32.3125 
Q 56.78125 27.484375 56.78125 20.515625 
Q 56.78125 9.90625 50.3125 4.234375 
Q 43.84375 -1.421875 31.78125 -1.421875 
Q 19.734375 -1.421875 13.25 4.234375 
Q 6.78125 9.90625 6.78125 20.515625 
Q 6.78125 27.484375 10.78125 32.3125 
Q 14.796875 37.15625 21.921875 38.8125 
z
M 18.3125 54.390625 
Q 18.3125 48.734375 21.84375 45.5625 
Q 25.390625 42.390625 31.78125 42.390625 
Q 38.140625 42.390625 41.71875 45.5625 
Q 45.3125 48.734375 45.3125 54.390625 
Q 45.3125 60.0625 41.71875 63.234375 
Q 38.140625 66.40625 31.78125 66.40625 
Q 25.390625 66.40625 21.84375 63.234375 
Q 18.3125 60.0625 18.3125 54.390625 
z
" id="DejaVuSans-56"/>
       </defs>
       <use xlink:href="#DejaVuSans-48"/>
       <use x="63.623047" xlink:href="#DejaVuSans-46"/>
       <use x="95.410156" xlink:href="#DejaVuSans-56"/>
      </g>
     </g>
    </g>
    <g id="text_5">
     <!-- Packing Fraction -->
     <g transform="translate(191.05375 325.2425)scale(0.16 -0.16)">
      <defs>
       <path d="M 19.671875 64.796875 
L 19.671875 37.40625 
L 32.078125 37.40625 
Q 38.96875 37.40625 42.71875 40.96875 
Q 46.484375 44.53125 46.484375 51.125 
Q 46.484375 57.671875 42.71875 61.234375 
Q 38.96875 64.796875 32.078125 64.796875 
z
M 9.8125 72.90625 
L 32.078125 72.90625 
Q 44.34375 72.90625 50.609375 67.359375 
Q 56.890625 61.8125 56.890625 51.125 
Q 56.890625 40.328125 50.609375 34.8125 
Q 44.34375 29.296875 32.078125 29.296875 
L 19.671875 29.296875 
L 19.671875 0 
L 9.8125 0 
z
" id="DejaVuSans-80"/>
       <path d="M 34.28125 27.484375 
Q 23.390625 27.484375 19.1875 25 
Q 14.984375 22.515625 14.984375 16.5 
Q 14.984375 11.71875 18.140625 8.90625 
Q 21.296875 6.109375 26.703125 6.109375 
Q 34.1875 6.109375 38.703125 11.40625 
Q 43.21875 16.703125 43.21875 25.484375 
L 43.21875 27.484375 
z
M 52.203125 31.203125 
L 52.203125 0 
L 43.21875 0 
L 43.21875 8.296875 
Q 40.140625 3.328125 35.546875 0.953125 
Q 30.953125 -1.421875 24.3125 -1.421875 
Q 15.921875 -1.421875 10.953125 3.296875 
Q 6 8.015625 6 15.921875 
Q 6 25.140625 12.171875 29.828125 
Q 18.359375 34.515625 30.609375 34.515625 
L 43.21875 34.515625 
L 43.21875 35.40625 
Q 43.21875 41.609375 39.140625 45 
Q 35.0625 48.390625 27.6875 48.390625 
Q 23 48.390625 18.546875 47.265625 
Q 14.109375 46.140625 10.015625 43.890625 
L 10.015625 52.203125 
Q 14.9375 54.109375 19.578125 55.046875 
Q 24.21875 56 28.609375 56 
Q 40.484375 56 46.34375 49.84375 
Q 52.203125 43.703125 52.203125 31.203125 
z
" id="DejaVuSans-97"/>
       <path d="M 48.78125 52.59375 
L 48.78125 44.1875 
Q 44.96875 46.296875 41.140625 47.34375 
Q 37.3125 48.390625 33.40625 48.390625 
Q 24.65625 48.390625 19.8125 42.84375 
Q 14.984375 37.3125 14.984375 27.296875 
Q 14.984375 17.28125 19.8125 11.734375 
Q 24.65625 6.203125 33.40625 6.203125 
Q 37.3125 6.203125 41.140625 7.25 
Q 44.96875 8.296875 48.78125 10.40625 
L 48.78125 2.09375 
Q 45.015625 0.34375 40.984375 -0.53125 
Q 36.96875 -1.421875 32.421875 -1.421875 
Q 20.0625 -1.421875 12.78125 6.34375 
Q 5.515625 14.109375 5.515625 27.296875 
Q 5.515625 40.671875 12.859375 48.328125 
Q 20.21875 56 33.015625 56 
Q 37.15625 56 41.109375 55.140625 
Q 45.0625 54.296875 48.78125 52.59375 
z
" id="DejaVuSans-99"/>
       <path d="M 9.078125 75.984375 
L 18.109375 75.984375 
L 18.109375 31.109375 
L 44.921875 54.6875 
L 56.390625 54.6875 
L 27.390625 29.109375 
L 57.625 0 
L 45.90625 0 
L 18.109375 26.703125 
L 18.109375 0 
L 9.078125 0 
z
" id="DejaVuSans-107"/>
       <path d="M 9.421875 54.6875 
L 18.40625 54.6875 
L 18.40625 0 
L 9.421875 0 
z
M 9.421875 75.984375 
L 18.40625 75.984375 
L 18.40625 64.59375 
L 9.421875 64.59375 
z
" id="DejaVuSans-105"/>
       <path d="M 54.890625 33.015625 
L 54.890625 0 
L 45.90625 0 
L 45.90625 32.71875 
Q 45.90625 40.484375 42.875 44.328125 
Q 39.84375 48.1875 33.796875 48.1875 
Q 26.515625 48.1875 22.3125 43.546875 
Q 18.109375 38.921875 18.109375 30.90625 
L 18.109375 0 
L 9.078125 0 
L 9.078125 54.6875 
L 18.109375 54.6875 
L 18.109375 46.1875 
Q 21.34375 51.125 25.703125 53.5625 
Q 30.078125 56 35.796875 56 
Q 45.21875 56 50.046875 50.171875 
Q 54.890625 44.34375 54.890625 33.015625 
z
" id="DejaVuSans-110"/>
       <path d="M 45.40625 27.984375 
Q 45.40625 37.75 41.375 43.109375 
Q 37.359375 48.484375 30.078125 48.484375 
Q 22.859375 48.484375 18.828125 43.109375 
Q 14.796875 37.75 14.796875 27.984375 
Q 14.796875 18.265625 18.828125 12.890625 
Q 22.859375 7.515625 30.078125 7.515625 
Q 37.359375 7.515625 41.375 12.890625 
Q 45.40625 18.265625 45.40625 27.984375 
z
M 54.390625 6.78125 
Q 54.390625 -7.171875 48.1875 -13.984375 
Q 42 -20.796875 29.203125 -20.796875 
Q 24.46875 -20.796875 20.265625 -20.09375 
Q 16.0625 -19.390625 12.109375 -17.921875 
L 12.109375 -9.1875 
Q 16.0625 -11.328125 19.921875 -12.34375 
Q 23.78125 -13.375 27.78125 -13.375 
Q 36.625 -13.375 41.015625 -8.765625 
Q 45.40625 -4.15625 45.40625 5.171875 
L 45.40625 9.625 
Q 42.625 4.78125 38.28125 2.390625 
Q 33.9375 0 27.875 0 
Q 17.828125 0 11.671875 7.65625 
Q 5.515625 15.328125 5.515625 27.984375 
Q 5.515625 40.671875 11.671875 48.328125 
Q 17.828125 56 27.875 56 
Q 33.9375 56 38.28125 53.609375 
Q 42.625 51.21875 45.40625 46.390625 
L 45.40625 54.6875 
L 54.390625 54.6875 
z
" id="DejaVuSans-103"/>
       <path id="DejaVuSans-32"/>
       <path d="M 9.8125 72.90625 
L 51.703125 72.90625 
L 51.703125 64.59375 
L 19.671875 64.59375 
L 19.671875 43.109375 
L 48.578125 43.109375 
L 48.578125 34.8125 
L 19.671875 34.8125 
L 19.671875 0 
L 9.8125 0 
z
" id="DejaVuSans-70"/>
       <path d="M 41.109375 46.296875 
Q 39.59375 47.171875 37.8125 47.578125 
Q 36.03125 48 33.890625 48 
Q 26.265625 48 22.1875 43.046875 
Q 18.109375 38.09375 18.109375 28.8125 
L 18.109375 0 
L 9.078125 0 
L 9.078125 54.6875 
L 18.109375 54.6875 
L 18.109375 46.1875 
Q 20.953125 51.171875 25.484375 53.578125 
Q 30.03125 56 36.53125 56 
Q 37.453125 56 38.578125 55.875 
Q 39.703125 55.765625 41.0625 55.515625 
z
" id="DejaVuSans-114"/>
       <path d="M 18.3125 70.21875 
L 18.3125 54.6875 
L 36.8125 54.6875 
L 36.8125 47.703125 
L 18.3125 47.703125 
L 18.3125 18.015625 
Q 18.3125 11.328125 20.140625 9.421875 
Q 21.96875 7.515625 27.59375 7.515625 
L 36.8125 7.515625 
L 36.8125 0 
L 27.59375 0 
Q 17.1875 0 13.234375 3.875 
Q 9.28125 7.765625 9.28125 18.015625 
L 9.28125 47.703125 
L 2.6875 47.703125 
L 2.6875 54.6875 
L 9.28125 54.6875 
L 9.28125 70.21875 
z
" id="DejaVuSans-116"/>
       <path d="M 30.609375 48.390625 
Q 23.390625 48.390625 19.1875 42.75 
Q 14.984375 37.109375 14.984375 27.296875 
Q 14.984375 17.484375 19.15625 11.84375 
Q 23.34375 6.203125 30.609375 6.203125 
Q 37.796875 6.203125 41.984375 11.859375 
Q 46.1875 17.53125 46.1875 27.296875 
Q 46.1875 37.015625 41.984375 42.703125 
Q 37.796875 48.390625 30.609375 48.390625 
z
M 30.609375 56 
Q 42.328125 56 49.015625 48.375 
Q 55.71875 40.765625 55.71875 27.296875 
Q 55.71875 13.875 49.015625 6.21875 
Q 42.328125 -1.421875 30.609375 -1.421875 
Q 18.84375 -1.421875 12.171875 6.21875 
Q 5.515625 13.875 5.515625 27.296875 
Q 5.515625 40.765625 12.171875 48.375 
Q 18.84375 56 30.609375 56 
z
" id="DejaVuSans-111"/>
      </defs>
      <use xlink:href="#DejaVuSans-80"/>
      <use x="55.802734" xlink:href="#DejaVuSans-97"/>
      <use x="117.082031" xlink:href="#DejaVuSans-99"/>
      <use x="172.0625" xlink:href="#DejaVuSans-107"/>
      <use x="229.972656" xlink:href="#DejaVuSans-105"/>
      <use x="257.755859" xlink:href="#DejaVuSans-110"/>
      <use x="321.134766" xlink:href="#DejaVuSans-103"/>
      <use x="384.611328" xlink:href="#DejaVuSans-32"/>
      <use x="416.398438" xlink:href="#DejaVuSans-70"/>
      <use x="466.667969" xlink:href="#DejaVuSans-114"/>
      <use x="507.78125" xlink:href="#DejaVuSans-97"/>
      <use x="569.060547" xlink:href="#DejaVuSans-99"/>
      <use x="624.041016" xlink:href="#DejaVuSans-116"/>
      <use x="663.25" xlink:href="#DejaVuSans-105"/>
      <use x="691.033203" xlink:href="#DejaVuSans-111"/>
      <use x="752.214844" xlink:href="#DejaVuSans-110"/>
     </g>
    </g>
   </g>
   <g id="matplotlib.axis_2">
    <g id="ytick_1">
     <g id="line2d_5">
      <defs>
       <path d="M 0 0 
L -3.5 0 
" id="md5078a612a" style="stroke:#000000;stroke-width:0.8;"/>
      </defs>
      <g>
       <use style="stroke:#000000;stroke-width:0.8;" x="69.08" xlink:href="#md5078a612a" y="277.7677"/>
      </g>
     </g>
     <g id="text_6">
      <!-- 0.0 -->
      <g transform="translate(36.635 283.84645)scale(0.16 -0.16)">
       <use xlink:href="#DejaVuSans-48"/>
       <use x="63.623047" xlink:href="#DejaVuSans-46"/>
       <use x="95.410156" xlink:href="#DejaVuSans-48"/>
      </g>
     </g>
    </g>
    <g id="ytick_2">
     <g id="line2d_6">
      <g>
       <use style="stroke:#000000;stroke-width:0.8;" x="69.08" xlink:href="#md5078a612a" y="228.034168"/>
      </g>
     </g>
     <g id="text_7">
      <!-- 0.2 -->
      <g transform="translate(36.635 234.112918)scale(0.16 -0.16)">
       <use xlink:href="#DejaVuSans-48"/>
       <use x="63.623047" xlink:href="#DejaVuSans-46"/>
       <use x="95.410156" xlink:href="#DejaVuSans-50"/>
      </g>
     </g>
    </g>
    <g id="ytick_3">
     <g id="line2d_7">
      <g>
       <use style="stroke:#000000;stroke-width:0.8;" x="69.08" xlink:href="#md5078a612a" y="178.300635"/>
      </g>
     </g>
     <g id="text_8">
      <!-- 0.4 -->
      <g transform="translate(36.635 184.379385)scale(0.16 -0.16)">
       <use xlink:href="#DejaVuSans-48"/>
       <use x="63.623047" xlink:href="#DejaVuSans-46"/>
       <use x="95.410156" xlink:href="#DejaVuSans-52"/>
      </g>
     </g>
    </g>
    <g id="ytick_4">
     <g id="line2d_8">
      <g>
       <use style="stroke:#000000;stroke-width:0.8;" x="69.08" xlink:href="#md5078a612a" y="128.567103"/>
      </g>
     </g>
     <g id="text_9">
      <!-- 0.6 -->
      <g transform="translate(36.635 134.645853)scale(0.16 -0.16)">
       <use xlink:href="#DejaVuSans-48"/>
       <use x="63.623047" xlink:href="#DejaVuSans-46"/>
       <use x="95.410156" xlink:href="#DejaVuSans-54"/>
      </g>
     </g>
    </g>
    <g id="ytick_5">
     <g id="line2d_9">
      <g>
       <use style="stroke:#000000;stroke-width:0.8;" x="69.08" xlink:href="#md5078a612a" y="78.833571"/>
      </g>
     </g>
     <g id="text_10">
      <!-- 0.8 -->
      <g transform="translate(36.635 84.912321)scale(0.16 -0.16)">
       <use xlink:href="#DejaVuSans-48"/>
       <use x="63.623047" xlink:href="#DejaVuSans-46"/>
       <use x="95.410156" xlink:href="#DejaVuSans-56"/>
      </g>
     </g>
    </g>
    <g id="ytick_6">
     <g id="line2d_10">
      <g>
       <use style="stroke:#000000;stroke-width:0.8;" x="69.08" xlink:href="#md5078a612a" y="29.100038"/>
      </g>
     </g>
     <g id="text_11">
      <!-- 1.0 -->
      <g transform="translate(36.635 35.178788)scale(0.16 -0.16)">
       <defs>
        <path d="M 12.40625 8.296875 
L 28.515625 8.296875 
L 28.515625 63.921875 
L 10.984375 60.40625 
L 10.984375 69.390625 
L 28.421875 72.90625 
L 38.28125 72.90625 
L 38.28125 8.296875 
L 54.390625 8.296875 
L 54.390625 0 
L 12.40625 0 
z
" id="DejaVuSans-49"/>
       </defs>
       <use xlink:href="#DejaVuSans-49"/>
       <use x="63.623047" xlink:href="#DejaVuSans-46"/>
       <use x="95.410156" xlink:href="#DejaVuSans-48"/>
      </g>
     </g>
    </g>
    <g id="text_12">
     <!-- Largest Cluster Size -->
     <g transform="translate(29.3075 231.655)rotate(-90)scale(0.16 -0.16)">
      <defs>
       <path d="M 9.8125 72.90625 
L 19.671875 72.90625 
L 19.671875 8.296875 
L 55.171875 8.296875 
L 55.171875 0 
L 9.8125 0 
z
" id="DejaVuSans-76"/>
       <path d="M 56.203125 29.59375 
L 56.203125 25.203125 
L 14.890625 25.203125 
Q 15.484375 15.921875 20.484375 11.0625 
Q 25.484375 6.203125 34.421875 6.203125 
Q 39.59375 6.203125 44.453125 7.46875 
Q 49.3125 8.734375 54.109375 11.28125 
L 54.109375 2.78125 
Q 49.265625 0.734375 44.1875 -0.34375 
Q 39.109375 -1.421875 33.890625 -1.421875 
Q 20.796875 -1.421875 13.15625 6.1875 
Q 5.515625 13.8125 5.515625 26.8125 
Q 5.515625 40.234375 12.765625 48.109375 
Q 20.015625 56 32.328125 56 
Q 43.359375 56 49.78125 48.890625 
Q 56.203125 41.796875 56.203125 29.59375 
z
M 47.21875 32.234375 
Q 47.125 39.59375 43.09375 43.984375 
Q 39.0625 48.390625 32.421875 48.390625 
Q 24.90625 48.390625 20.390625 44.140625 
Q 15.875 39.890625 15.1875 32.171875 
z
" id="DejaVuSans-101"/>
       <path d="M 44.28125 53.078125 
L 44.28125 44.578125 
Q 40.484375 46.53125 36.375 47.5 
Q 32.28125 48.484375 27.875 48.484375 
Q 21.1875 48.484375 17.84375 46.4375 
Q 14.5 44.390625 14.5 40.28125 
Q 14.5 37.15625 16.890625 35.375 
Q 19.28125 33.59375 26.515625 31.984375 
L 29.59375 31.296875 
Q 39.15625 29.25 43.1875 25.515625 
Q 47.21875 21.78125 47.21875 15.09375 
Q 47.21875 7.46875 41.1875 3.015625 
Q 35.15625 -1.421875 24.609375 -1.421875 
Q 20.21875 -1.421875 15.453125 -0.5625 
Q 10.6875 0.296875 5.421875 2 
L 5.421875 11.28125 
Q 10.40625 8.6875 15.234375 7.390625 
Q 20.0625 6.109375 24.8125 6.109375 
Q 31.15625 6.109375 34.5625 8.28125 
Q 37.984375 10.453125 37.984375 14.40625 
Q 37.984375 18.0625 35.515625 20.015625 
Q 33.0625 21.96875 24.703125 23.78125 
L 21.578125 24.515625 
Q 13.234375 26.265625 9.515625 29.90625 
Q 5.8125 33.546875 5.8125 39.890625 
Q 5.8125 47.609375 11.28125 51.796875 
Q 16.75 56 26.8125 56 
Q 31.78125 56 36.171875 55.265625 
Q 40.578125 54.546875 44.28125 53.078125 
z
" id="DejaVuSans-115"/>
       <path d="M 64.40625 67.28125 
L 64.40625 56.890625 
Q 59.421875 61.53125 53.78125 63.8125 
Q 48.140625 66.109375 41.796875 66.109375 
Q 29.296875 66.109375 22.65625 58.46875 
Q 16.015625 50.828125 16.015625 36.375 
Q 16.015625 21.96875 22.65625 14.328125 
Q 29.296875 6.6875 41.796875 6.6875 
Q 48.140625 6.6875 53.78125 8.984375 
Q 59.421875 11.28125 64.40625 15.921875 
L 64.40625 5.609375 
Q 59.234375 2.09375 53.4375 0.328125 
Q 47.65625 -1.421875 41.21875 -1.421875 
Q 24.65625 -1.421875 15.125 8.703125 
Q 5.609375 18.84375 5.609375 36.375 
Q 5.609375 53.953125 15.125 64.078125 
Q 24.65625 74.21875 41.21875 74.21875 
Q 47.75 74.21875 53.53125 72.484375 
Q 59.328125 70.75 64.40625 67.28125 
z
" id="DejaVuSans-67"/>
       <path d="M 9.421875 75.984375 
L 18.40625 75.984375 
L 18.40625 0 
L 9.421875 0 
z
" id="DejaVuSans-108"/>
       <path d="M 8.5 21.578125 
L 8.5 54.6875 
L 17.484375 54.6875 
L 17.484375 21.921875 
Q 17.484375 14.15625 20.5 10.265625 
Q 23.53125 6.390625 29.59375 6.390625 
Q 36.859375 6.390625 41.078125 11.03125 
Q 45.3125 15.671875 45.3125 23.6875 
L 45.3125 54.6875 
L 54.296875 54.6875 
L 54.296875 0 
L 45.3125 0 
L 45.3125 8.40625 
Q 42.046875 3.421875 37.71875 1 
Q 33.40625 -1.421875 27.6875 -1.421875 
Q 18.265625 -1.421875 13.375 4.4375 
Q 8.5 10.296875 8.5 21.578125 
z
M 31.109375 56 
z
" id="DejaVuSans-117"/>
       <path d="M 53.515625 70.515625 
L 53.515625 60.890625 
Q 47.90625 63.578125 42.921875 64.890625 
Q 37.9375 66.21875 33.296875 66.21875 
Q 25.25 66.21875 20.875 63.09375 
Q 16.5 59.96875 16.5 54.203125 
Q 16.5 49.359375 19.40625 46.890625 
Q 22.3125 44.4375 30.421875 42.921875 
L 36.375 41.703125 
Q 47.40625 39.59375 52.65625 34.296875 
Q 57.90625 29 57.90625 20.125 
Q 57.90625 9.515625 50.796875 4.046875 
Q 43.703125 -1.421875 29.984375 -1.421875 
Q 24.8125 -1.421875 18.96875 -0.25 
Q 13.140625 0.921875 6.890625 3.21875 
L 6.890625 13.375 
Q 12.890625 10.015625 18.65625 8.296875 
Q 24.421875 6.59375 29.984375 6.59375 
Q 38.421875 6.59375 43.015625 9.90625 
Q 47.609375 13.234375 47.609375 19.390625 
Q 47.609375 24.75 44.3125 27.78125 
Q 41.015625 30.8125 33.5 32.328125 
L 27.484375 33.5 
Q 16.453125 35.6875 11.515625 40.375 
Q 6.59375 45.0625 6.59375 53.421875 
Q 6.59375 63.09375 13.40625 68.65625 
Q 20.21875 74.21875 32.171875 74.21875 
Q 37.3125 74.21875 42.625 73.28125 
Q 47.953125 72.359375 53.515625 70.515625 
z
" id="DejaVuSans-83"/>
       <path d="M 5.515625 54.6875 
L 48.1875 54.6875 
L 48.1875 46.484375 
L 14.40625 7.171875 
L 48.1875 7.171875 
L 48.1875 0 
L 4.296875 0 
L 4.296875 8.203125 
L 38.09375 47.515625 
L 5.515625 47.515625 
z
" id="DejaVuSans-122"/>
      </defs>
      <use xlink:href="#DejaVuSans-76"/>
      <use x="55.712891" xlink:href="#DejaVuSans-97"/>
      <use x="116.992188" xlink:href="#DejaVuSans-114"/>
      <use x="156.355469" xlink:href="#DejaVuSans-103"/>
      <use x="219.832031" xlink:href="#DejaVuSans-101"/>
      <use x="281.355469" xlink:href="#DejaVuSans-115"/>
      <use x="333.455078" xlink:href="#DejaVuSans-116"/>
      <use x="372.664062" xlink:href="#DejaVuSans-32"/>
      <use x="404.451172" xlink:href="#DejaVuSans-67"/>
      <use x="474.275391" xlink:href="#DejaVuSans-108"/>
      <use x="502.058594" xlink:href="#DejaVuSans-117"/>
      <use x="565.4375" xlink:href="#DejaVuSans-115"/>
      <use x="617.537109" xlink:href="#DejaVuSans-116"/>
      <use x="656.746094" xlink:href="#DejaVuSans-101"/>
      <use x="718.269531" xlink:href="#DejaVuSans-114"/>
      <use x="759.382812" xlink:href="#DejaVuSans-32"/>
      <use x="791.169922" xlink:href="#DejaVuSans-83"/>
      <use x="854.646484" xlink:href="#DejaVuSans-105"/>
      <use x="882.429688" xlink:href="#DejaVuSans-122"/>
      <use x="934.919922" xlink:href="#DejaVuSans-101"/>
     </g>
    </g>
   </g>
   <g id="LineCollection_1">
    <path clip-path="url(#pc14ee62750)" d="M 426.5 30.170264 
L 426.5 29.521818 
" style="fill:none;stroke:#b22222;stroke-width:1.5;"/>
    <path clip-path="url(#pc14ee62750)" d="M 410.03582 31.628478 
L 410.03582 30.550281 
" style="fill:none;stroke:#b22222;stroke-width:1.5;"/>
    <path clip-path="url(#pc14ee62750)" d="M 394.279407 32.275794 
L 394.279407 30.648968 
" style="fill:none;stroke:#b22222;stroke-width:1.5;"/>
    <path clip-path="url(#pc14ee62750)" d="M 379.200336 32.791561 
L 379.200336 31.625207 
" style="fill:none;stroke:#b22222;stroke-width:1.5;"/>
    <path clip-path="url(#pc14ee62750)" d="M 364.769488 37.962562 
L 364.769488 34.908907 
" style="fill:none;stroke:#b22222;stroke-width:1.5;"/>
    <path clip-path="url(#pc14ee62750)" d="M 350.958998 37.830106 
L 350.958998 34.792694 
" style="fill:none;stroke:#b22222;stroke-width:1.5;"/>
    <path clip-path="url(#pc14ee62750)" d="M 337.742197 41.859986 
L 337.742197 36.979507 
" style="fill:none;stroke:#b22222;stroke-width:1.5;"/>
    <path clip-path="url(#pc14ee62750)" d="M 325.093565 44.141667 
L 325.093565 39.671178 
" style="fill:none;stroke:#b22222;stroke-width:1.5;"/>
    <path clip-path="url(#pc14ee62750)" d="M 312.988675 48.205033 
L 312.988675 44.31118 
" style="fill:none;stroke:#b22222;stroke-width:1.5;"/>
    <path clip-path="url(#pc14ee62750)" d="M 301.404154 48.100316 
L 301.404154 46.902574 
" style="fill:none;stroke:#b22222;stroke-width:1.5;"/>
    <path clip-path="url(#pc14ee62750)" d="M 290.317632 60.908941 
L 290.317632 51.00335 
" style="fill:none;stroke:#b22222;stroke-width:1.5;"/>
    <path clip-path="url(#pc14ee62750)" d="M 279.707701 66.595474 
L 279.707701 59.98821 
" style="fill:none;stroke:#b22222;stroke-width:1.5;"/>
    <path clip-path="url(#pc14ee62750)" d="M 269.553873 79.158972 
L 269.553873 65.826118 
" style="fill:none;stroke:#b22222;stroke-width:1.5;"/>
    <path clip-path="url(#pc14ee62750)" d="M 259.836541 83.150282 
L 259.836541 67.802833 
" style="fill:none;stroke:#b22222;stroke-width:1.5;"/>
    <path clip-path="url(#pc14ee62750)" d="M 250.53694 89.746563 
L 250.53694 74.634605 
" style="fill:none;stroke:#b22222;stroke-width:1.5;"/>
    <path clip-path="url(#pc14ee62750)" d="M 241.637113 95.774935 
L 241.637113 79.298943 
" style="fill:none;stroke:#b22222;stroke-width:1.5;"/>
    <path clip-path="url(#pc14ee62750)" d="M 233.119875 104.444228 
L 233.119875 91.269065 
" style="fill:none;stroke:#b22222;stroke-width:1.5;"/>
    <path clip-path="url(#pc14ee62750)" d="M 224.968778 109.924297 
L 224.968778 96.730374 
" style="fill:none;stroke:#b22222;stroke-width:1.5;"/>
    <path clip-path="url(#pc14ee62750)" d="M 217.168083 119.014747 
L 217.168083 106.538666 
" style="fill:none;stroke:#b22222;stroke-width:1.5;"/>
    <path clip-path="url(#pc14ee62750)" d="M 209.702727 135.075054 
L 209.702727 109.625769 
" style="fill:none;stroke:#b22222;stroke-width:1.5;"/>
    <path clip-path="url(#pc14ee62750)" d="M 202.558294 166.698749 
L 202.558294 137.682312 
" style="fill:none;stroke:#b22222;stroke-width:1.5;"/>
    <path clip-path="url(#pc14ee62750)" d="M 195.720988 166.768519 
L 195.720988 140.347887 
" style="fill:none;stroke:#b22222;stroke-width:1.5;"/>
    <path clip-path="url(#pc14ee62750)" d="M 189.177605 204.71631 
L 189.177605 172.275709 
" style="fill:none;stroke:#b22222;stroke-width:1.5;"/>
    <path clip-path="url(#pc14ee62750)" d="M 182.915512 212.394083 
L 182.915512 176.782651 
" style="fill:none;stroke:#b22222;stroke-width:1.5;"/>
    <path clip-path="url(#pc14ee62750)" d="M 176.922616 210.919646 
L 176.922616 171.543061 
" style="fill:none;stroke:#b22222;stroke-width:1.5;"/>
    <path clip-path="url(#pc14ee62750)" d="M 171.187344 205.583217 
L 171.187344 178.12283 
" style="fill:none;stroke:#b22222;stroke-width:1.5;"/>
    <path clip-path="url(#pc14ee62750)" d="M 165.698622 222.891186 
L 165.698622 194.88233 
" style="fill:none;stroke:#b22222;stroke-width:1.5;"/>
    <path clip-path="url(#pc14ee62750)" d="M 160.44585 232.714507 
L 160.44585 206.19576 
" style="fill:none;stroke:#b22222;stroke-width:1.5;"/>
    <path clip-path="url(#pc14ee62750)" d="M 155.418887 238.736107 
L 155.418887 213.602214 
" style="fill:none;stroke:#b22222;stroke-width:1.5;"/>
    <path clip-path="url(#pc14ee62750)" d="M 150.608023 239.761113 
L 150.608023 213.074543 
" style="fill:none;stroke:#b22222;stroke-width:1.5;"/>
    <path clip-path="url(#pc14ee62750)" d="M 146.003971 248.248073 
L 146.003971 221.745652 
" style="fill:none;stroke:#b22222;stroke-width:1.5;"/>
    <path clip-path="url(#pc14ee62750)" d="M 141.597839 251.853353 
L 141.597839 233.557766 
" style="fill:none;stroke:#b22222;stroke-width:1.5;"/>
    <path clip-path="url(#pc14ee62750)" d="M 137.38112 256.666476 
L 137.38112 231.479989 
" style="fill:none;stroke:#b22222;stroke-width:1.5;"/>
    <path clip-path="url(#pc14ee62750)" d="M 133.345669 254.831838 
L 133.345669 234.309297 
" style="fill:none;stroke:#b22222;stroke-width:1.5;"/>
    <path clip-path="url(#pc14ee62750)" d="M 129.483696 256.410201 
L 129.483696 242.428973 
" style="fill:none;stroke:#b22222;stroke-width:1.5;"/>
    <path clip-path="url(#pc14ee62750)" d="M 125.787743 259.76564 
L 125.787743 245.538893 
" style="fill:none;stroke:#b22222;stroke-width:1.5;"/>
    <path clip-path="url(#pc14ee62750)" d="M 122.250673 263.768994 
L 122.250673 251.233578 
" style="fill:none;stroke:#b22222;stroke-width:1.5;"/>
    <path clip-path="url(#pc14ee62750)" d="M 118.865655 267.540831 
L 118.865655 253.9271 
" style="fill:none;stroke:#b22222;stroke-width:1.5;"/>
    <path clip-path="url(#pc14ee62750)" d="M 115.626153 270.294764 
L 115.626153 256.892523 
" style="fill:none;stroke:#b22222;stroke-width:1.5;"/>
    <path clip-path="url(#pc14ee62750)" d="M 112.525912 270.179191 
L 112.525912 259.743441 
" style="fill:none;stroke:#b22222;stroke-width:1.5;"/>
    <path clip-path="url(#pc14ee62750)" d="M 109.558945 269.991665 
L 109.558945 259.682299 
" style="fill:none;stroke:#b22222;stroke-width:1.5;"/>
    <path clip-path="url(#pc14ee62750)" d="M 106.719523 270.283047 
L 106.719523 260.136919 
" style="fill:none;stroke:#b22222;stroke-width:1.5;"/>
    <path clip-path="url(#pc14ee62750)" d="M 104.002163 271.120365 
L 104.002163 258.304931 
" style="fill:none;stroke:#b22222;stroke-width:1.5;"/>
    <path clip-path="url(#pc14ee62750)" d="M 101.401617 272.586547 
L 101.401617 266.039453 
" style="fill:none;stroke:#b22222;stroke-width:1.5;"/>
    <path clip-path="url(#pc14ee62750)" d="M 98.912865 272.643997 
L 98.912865 266.728006 
" style="fill:none;stroke:#b22222;stroke-width:1.5;"/>
    <path clip-path="url(#pc14ee62750)" d="M 96.5311 272.289226 
L 96.5311 268.326115 
" style="fill:none;stroke:#b22222;stroke-width:1.5;"/>
    <path clip-path="url(#pc14ee62750)" d="M 94.251723 271.814771 
L 94.251723 269.546573 
" style="fill:none;stroke:#b22222;stroke-width:1.5;"/>
    <path clip-path="url(#pc14ee62750)" d="M 92.070332 273.520588 
L 92.070332 271.819439 
" style="fill:none;stroke:#b22222;stroke-width:1.5;"/>
    <path clip-path="url(#pc14ee62750)" d="M 89.982716 273.712152 
L 89.982716 272.622545 
" style="fill:none;stroke:#b22222;stroke-width:1.5;"/>
    <path clip-path="url(#pc14ee62750)" d="M 87.984843 273.420138 
L 87.984843 272.665892 
" style="fill:none;stroke:#b22222;stroke-width:1.5;"/>
   </g>
   <g id="LineCollection_2">
    <path clip-path="url(#pc14ee62750)" d="M 86.1 274.358182 
L 86.1 273.468521 
" style="fill:none;stroke:#808080;stroke-width:1.5;"/>
    <path clip-path="url(#pc14ee62750)" d="M 88.013637 274.273227 
L 88.013637 274.050812 
" style="fill:none;stroke:#808080;stroke-width:1.5;"/>
    <path clip-path="url(#pc14ee62750)" d="M 90.013253 274.321954 
L 90.013253 273.504749 
" style="fill:none;stroke:#808080;stroke-width:1.5;"/>
    <path clip-path="url(#pc14ee62750)" d="M 92.10271 274.079449 
L 92.10271 273.001251 
" style="fill:none;stroke:#808080;stroke-width:1.5;"/>
    <path clip-path="url(#pc14ee62750)" d="M 94.286045 273.693152 
L 94.286045 272.14421 
" style="fill:none;stroke:#808080;stroke-width:1.5;"/>
    <path clip-path="url(#pc14ee62750)" d="M 96.567476 273.464194 
L 96.567476 271.875832 
" style="fill:none;stroke:#808080;stroke-width:1.5;"/>
    <path clip-path="url(#pc14ee62750)" d="M 98.951411 273.691461 
L 98.951411 272.394569 
" style="fill:none;stroke:#808080;stroke-width:1.5;"/>
    <path clip-path="url(#pc14ee62750)" d="M 101.442454 274.105096 
L 101.442454 272.478269 
" style="fill:none;stroke:#808080;stroke-width:1.5;"/>
    <path clip-path="url(#pc14ee62750)" d="M 104.045418 272.999997 
L 104.045418 270.599356 
" style="fill:none;stroke:#808080;stroke-width:1.5;"/>
    <path clip-path="url(#pc14ee62750)" d="M 106.765332 272.722075 
L 106.765332 271.125946 
" style="fill:none;stroke:#808080;stroke-width:1.5;"/>
    <path clip-path="url(#pc14ee62750)" d="M 109.60745 272.530014 
L 109.60745 270.572003 
" style="fill:none;stroke:#808080;stroke-width:1.5;"/>
    <path clip-path="url(#pc14ee62750)" d="M 112.577263 272.337365 
L 112.577263 270.764653 
" style="fill:none;stroke:#808080;stroke-width:1.5;"/>
    <path clip-path="url(#pc14ee62750)" d="M 115.680508 271.936342 
L 115.680508 270.419673 
" style="fill:none;stroke:#808080;stroke-width:1.5;"/>
    <path clip-path="url(#pc14ee62750)" d="M 118.923179 271.300563 
L 118.923179 269.563446 
" style="fill:none;stroke:#808080;stroke-width:1.5;"/>
    <path clip-path="url(#pc14ee62750)" d="M 122.311542 272.082364 
L 122.311542 269.776315 
" style="fill:none;stroke:#808080;stroke-width:1.5;"/>
    <path clip-path="url(#pc14ee62750)" d="M 125.852142 271.939852 
L 125.852142 270.167495 
" style="fill:none;stroke:#808080;stroke-width:1.5;"/>
    <path clip-path="url(#pc14ee62750)" d="M 129.551818 270.666262 
L 129.551818 267.462403 
" style="fill:none;stroke:#808080;stroke-width:1.5;"/>
    <path clip-path="url(#pc14ee62750)" d="M 133.41772 269.487403 
L 133.41772 267.646591 
" style="fill:none;stroke:#808080;stroke-width:1.5;"/>
    <path clip-path="url(#pc14ee62750)" d="M 137.457313 269.150639 
L 137.457313 267.237352 
" style="fill:none;stroke:#808080;stroke-width:1.5;"/>
    <path clip-path="url(#pc14ee62750)" d="M 141.678403 268.706425 
L 141.678403 266.438227 
" style="fill:none;stroke:#808080;stroke-width:1.5;"/>
    <path clip-path="url(#pc14ee62750)" d="M 146.089145 267.161644 
L 146.089145 263.506991 
" style="fill:none;stroke:#808080;stroke-width:1.5;"/>
    <path clip-path="url(#pc14ee62750)" d="M 150.698058 266.869717 
L 150.698058 264.047585 
" style="fill:none;stroke:#808080;stroke-width:1.5;"/>
    <path clip-path="url(#pc14ee62750)" d="M 155.514047 263.550349 
L 155.514047 258.166249 
" style="fill:none;stroke:#808080;stroke-width:1.5;"/>
    <path clip-path="url(#pc14ee62750)" d="M 160.546415 264.480092 
L 160.546415 259.474516 
" style="fill:none;stroke:#808080;stroke-width:1.5;"/>
    <path clip-path="url(#pc14ee62750)" d="M 165.804885 265.367105 
L 165.804885 259.582173 
" style="fill:none;stroke:#808080;stroke-width:1.5;"/>
    <path clip-path="url(#pc14ee62750)" d="M 171.299614 262.252316 
L 171.299614 248.02557 
" style="fill:none;stroke:#808080;stroke-width:1.5;"/>
    <path clip-path="url(#pc14ee62750)" d="M 177.041218 263.055044 
L 177.041218 261.148231 
" style="fill:none;stroke:#808080;stroke-width:1.5;"/>
    <path clip-path="url(#pc14ee62750)" d="M 183.04079 252.202071 
L 183.04079 242.907088 
" style="fill:none;stroke:#808080;stroke-width:1.5;"/>
    <path clip-path="url(#pc14ee62750)" d="M 189.309918 255.319336 
L 189.309918 241.530496 
" style="fill:none;stroke:#808080;stroke-width:1.5;"/>
    <path clip-path="url(#pc14ee62750)" d="M 195.860714 252.756985 
L 195.860714 236.38415 
" style="fill:none;stroke:#808080;stroke-width:1.5;"/>
    <path clip-path="url(#pc14ee62750)" d="M 202.705834 242.293828 
L 202.705834 232.67325 
" style="fill:none;stroke:#808080;stroke-width:1.5;"/>
    <path clip-path="url(#pc14ee62750)" d="M 209.858501 233.080001 
L 209.858501 220.252991 
" style="fill:none;stroke:#808080;stroke-width:1.5;"/>
    <path clip-path="url(#pc14ee62750)" d="M 217.332533 234.447071 
L 217.332533 217.642582 
" style="fill:none;stroke:#808080;stroke-width:1.5;"/>
    <path clip-path="url(#pc14ee62750)" d="M 225.142368 231.207299 
L 225.142368 201.983612 
" style="fill:none;stroke:#808080;stroke-width:1.5;"/>
    <path clip-path="url(#pc14ee62750)" d="M 233.303095 222.577722 
L 233.303095 202.158488 
" style="fill:none;stroke:#808080;stroke-width:1.5;"/>
    <path clip-path="url(#pc14ee62750)" d="M 241.830479 212.131265 
L 241.830479 191.468194 
" style="fill:none;stroke:#808080;stroke-width:1.5;"/>
    <path clip-path="url(#pc14ee62750)" d="M 250.740992 188.036169 
L 250.740992 163.343082 
" style="fill:none;stroke:#808080;stroke-width:1.5;"/>
    <path clip-path="url(#pc14ee62750)" d="M 260.05185 174.850449 
L 260.05185 147.434684 
" style="fill:none;stroke:#808080;stroke-width:1.5;"/>
    <path clip-path="url(#pc14ee62750)" d="M 269.781038 164.55159 
L 269.781038 139.829472 
" style="fill:none;stroke:#808080;stroke-width:1.5;"/>
    <path clip-path="url(#pc14ee62750)" d="M 279.947354 112.803359 
L 279.947354 94.09998 
" style="fill:none;stroke:#808080;stroke-width:1.5;"/>
    <path clip-path="url(#pc14ee62750)" d="M 290.570436 96.079757 
L 290.570436 85.956815 
" style="fill:none;stroke:#808080;stroke-width:1.5;"/>
    <path clip-path="url(#pc14ee62750)" d="M 301.670806 64.711938 
L 301.670806 59.882404 
" style="fill:none;stroke:#808080;stroke-width:1.5;"/>
    <path clip-path="url(#pc14ee62750)" d="M 313.269909 58.330897 
L 313.269909 52.089388 
" style="fill:none;stroke:#808080;stroke-width:1.5;"/>
    <path clip-path="url(#pc14ee62750)" d="M 325.390153 51.162402 
L 325.390153 48.813842 
" style="fill:none;stroke:#808080;stroke-width:1.5;"/>
    <path clip-path="url(#pc14ee62750)" d="M 338.054953 49.260325 
L 338.054953 44.996563 
" style="fill:none;stroke:#808080;stroke-width:1.5;"/>
    <path clip-path="url(#pc14ee62750)" d="M 351.288774 43.445743 
L 351.288774 39.869767 
" style="fill:none;stroke:#808080;stroke-width:1.5;"/>
    <path clip-path="url(#pc14ee62750)" d="M 365.117182 36.885297 
L 365.117182 34.991501 
" style="fill:none;stroke:#808080;stroke-width:1.5;"/>
    <path clip-path="url(#pc14ee62750)" d="M 379.566893 34.779244 
L 379.566893 32.1242 
" style="fill:none;stroke:#808080;stroke-width:1.5;"/>
    <path clip-path="url(#pc14ee62750)" d="M 394.665821 34.382151 
L 394.665821 32.521293 
" style="fill:none;stroke:#808080;stroke-width:1.5;"/>
    <path clip-path="url(#pc14ee62750)" d="M 410.443134 31.319034 
L 410.443134 30.36239 
" style="fill:none;stroke:#808080;stroke-width:1.5;"/>
   </g>
   <g id="line2d_11">
    <path clip-path="url(#pc14ee62750)" d="M 426.5 29.846041 
L 410.03582 31.089379 
L 394.279407 31.462381 
L 379.200336 32.208384 
L 364.769488 36.435734 
L 350.958998 36.3114 
L 337.742197 39.419746 
L 325.093565 41.906423 
L 312.988675 46.258107 
L 301.404154 47.501445 
L 290.317632 55.956146 
L 279.707701 63.291842 
L 269.553873 72.492545 
L 259.836541 75.476557 
L 250.53694 82.190584 
L 241.637113 87.536939 
L 233.119875 97.856647 
L 224.968778 103.327335 
L 217.168083 112.776706 
L 209.702727 122.350411 
L 202.558294 152.190531 
L 195.720988 153.558203 
L 189.177605 188.49601 
L 182.915512 194.588367 
L 176.922616 191.231354 
L 171.187344 191.853023 
L 165.698622 208.886758 
L 160.44585 219.455134 
L 155.418887 226.16916 
L 150.608023 226.417828 
L 146.003971 234.996862 
L 141.597839 242.70556 
L 137.38112 244.073232 
L 133.345669 244.570567 
L 129.483696 249.419587 
L 125.787743 252.652266 
L 122.250673 257.501286 
L 118.865655 260.733965 
L 115.626153 263.593644 
L 112.525912 264.961316 
L 109.558945 264.836982 
L 106.719523 265.209983 
L 104.002163 264.712648 
L 101.401617 269.313 
L 98.912865 269.686001 
L 96.5311 270.30767 
L 94.251723 270.680672 
L 92.070332 272.670013 
L 89.982716 273.167349 
L 87.984843 273.043015 
" style="fill:none;stroke:#b22222;stroke-linecap:square;stroke-width:1.5;"/>
   </g>
   <g id="line2d_12">
    <path clip-path="url(#pc14ee62750)" d="M 86.1 273.913352 
L 88.013637 274.162019 
L 90.013253 273.913352 
L 92.10271 273.54035 
L 94.286045 272.918681 
L 96.567476 272.670013 
L 98.951411 273.043015 
L 101.442454 273.291682 
L 104.045418 271.799676 
L 106.765332 271.92401 
L 109.60745 271.551009 
L 112.577263 271.551009 
L 115.680508 271.178007 
L 118.923179 270.432004 
L 122.311542 270.92934 
L 125.852142 271.053673 
L 129.551818 269.064332 
L 133.41772 268.566997 
L 137.457313 268.193995 
L 141.678403 267.572326 
L 146.089145 265.334317 
L 150.698058 265.458651 
L 155.514047 260.858299 
L 160.546415 261.977304 
L 165.804885 262.474639 
L 171.299614 255.138943 
L 177.041218 262.101638 
L 183.04079 247.554579 
L 189.309918 248.424916 
L 195.860714 244.570567 
L 202.705834 237.483539 
L 209.858501 226.666496 
L 217.332533 226.044827 
L 225.142368 216.595455 
L 233.303095 212.368105 
L 241.830479 201.79973 
L 250.740992 175.689625 
L 260.05185 161.142567 
L 269.781038 152.190531 
L 279.947354 103.451669 
L 290.570436 91.018286 
L 301.670806 62.297171 
L 313.269909 55.210143 
L 325.390153 49.988122 
L 338.054953 47.128444 
L 351.288774 41.657755 
L 365.117182 35.938399 
L 379.566893 33.451722 
L 394.665821 33.451722 
L 410.443134 30.840712 
" style="fill:none;stroke:#808080;stroke-linecap:square;stroke-width:1.5;"/>
   </g>
   <g id="patch_3">
    <path d="M 69.08 286.6 
L 69.08 17.28 
" style="fill:none;stroke:#000000;stroke-linecap:square;stroke-linejoin:miter;stroke-width:0.8;"/>
   </g>
   <g id="patch_4">
    <path d="M 443.52 286.6 
L 443.52 17.28 
" style="fill:none;stroke:#000000;stroke-linecap:square;stroke-linejoin:miter;stroke-width:0.8;"/>
   </g>
   <g id="patch_5">
    <path d="M 69.08 286.6 
L 443.52 286.6 
" style="fill:none;stroke:#000000;stroke-linecap:square;stroke-linejoin:miter;stroke-width:0.8;"/>
   </g>
   <g id="patch_6">
    <path d="M 69.08 17.28 
L 443.52 17.28 
" style="fill:none;stroke:#000000;stroke-linecap:square;stroke-linejoin:miter;stroke-width:0.8;"/>
   </g>
   <g id="legend_1">
    <g id="patch_7">
     <path d="M 80.28 77.05 
L 224.6825 77.05 
Q 227.8825 77.05 227.8825 73.85 
L 227.8825 28.48 
Q 227.8825 25.28 224.6825 25.28 
L 80.28 25.28 
Q 77.08 25.28 77.08 28.48 
L 77.08 73.85 
Q 77.08 77.05 80.28 77.05 
z
" style="fill:#ffffff;opacity:0.8;stroke:#cccccc;stroke-linejoin:miter;"/>
    </g>
    <g id="LineCollection_3">
     <path d="M 99.48 46.2375 
L 99.48 30.2375 
" style="fill:none;stroke:#b22222;stroke-width:1.5;"/>
    </g>
    <g id="line2d_13">
     <path d="M 83.48 38.2375 
L 115.48 38.2375 
" style="fill:none;stroke:#b22222;stroke-linecap:square;stroke-width:1.5;"/>
    </g>
    <g id="line2d_14"/>
    <g id="text_13">
     <!-- Expansion -->
     <g transform="translate(128.28 43.8375)scale(0.16 -0.16)">
      <defs>
       <path d="M 9.8125 72.90625 
L 55.90625 72.90625 
L 55.90625 64.59375 
L 19.671875 64.59375 
L 19.671875 43.015625 
L 54.390625 43.015625 
L 54.390625 34.71875 
L 19.671875 34.71875 
L 19.671875 8.296875 
L 56.78125 8.296875 
L 56.78125 0 
L 9.8125 0 
z
" id="DejaVuSans-69"/>
       <path d="M 54.890625 54.6875 
L 35.109375 28.078125 
L 55.90625 0 
L 45.3125 0 
L 29.390625 21.484375 
L 13.484375 0 
L 2.875 0 
L 24.125 28.609375 
L 4.6875 54.6875 
L 15.28125 54.6875 
L 29.78125 35.203125 
L 44.28125 54.6875 
z
" id="DejaVuSans-120"/>
       <path d="M 18.109375 8.203125 
L 18.109375 -20.796875 
L 9.078125 -20.796875 
L 9.078125 54.6875 
L 18.109375 54.6875 
L 18.109375 46.390625 
Q 20.953125 51.265625 25.265625 53.625 
Q 29.59375 56 35.59375 56 
Q 45.5625 56 51.78125 48.09375 
Q 58.015625 40.1875 58.015625 27.296875 
Q 58.015625 14.40625 51.78125 6.484375 
Q 45.5625 -1.421875 35.59375 -1.421875 
Q 29.59375 -1.421875 25.265625 0.953125 
Q 20.953125 3.328125 18.109375 8.203125 
z
M 48.6875 27.296875 
Q 48.6875 37.203125 44.609375 42.84375 
Q 40.53125 48.484375 33.40625 48.484375 
Q 26.265625 48.484375 22.1875 42.84375 
Q 18.109375 37.203125 18.109375 27.296875 
Q 18.109375 17.390625 22.1875 11.75 
Q 26.265625 6.109375 33.40625 6.109375 
Q 40.53125 6.109375 44.609375 11.75 
Q 48.6875 17.390625 48.6875 27.296875 
z
" id="DejaVuSans-112"/>
      </defs>
      <use xlink:href="#DejaVuSans-69"/>
      <use x="63.183594" xlink:href="#DejaVuSans-120"/>
      <use x="122.363281" xlink:href="#DejaVuSans-112"/>
      <use x="185.839844" xlink:href="#DejaVuSans-97"/>
      <use x="247.119141" xlink:href="#DejaVuSans-110"/>
      <use x="310.498047" xlink:href="#DejaVuSans-115"/>
      <use x="362.597656" xlink:href="#DejaVuSans-105"/>
      <use x="390.380859" xlink:href="#DejaVuSans-111"/>
      <use x="451.5625" xlink:href="#DejaVuSans-110"/>
     </g>
    </g>
    <g id="LineCollection_4">
     <path d="M 99.48 69.7225 
L 99.48 53.7225 
" style="fill:none;stroke:#808080;stroke-width:1.5;"/>
    </g>
    <g id="line2d_15">
     <path d="M 83.48 61.7225 
L 115.48 61.7225 
" style="fill:none;stroke:#808080;stroke-linecap:square;stroke-width:1.5;"/>
    </g>
    <g id="line2d_16"/>
    <g id="text_14">
     <!-- Contraction -->
     <g transform="translate(128.28 67.3225)scale(0.16 -0.16)">
      <use xlink:href="#DejaVuSans-67"/>
      <use x="69.824219" xlink:href="#DejaVuSans-111"/>
      <use x="131.005859" xlink:href="#DejaVuSans-110"/>
      <use x="194.384766" xlink:href="#DejaVuSans-116"/>
      <use x="233.59375" xlink:href="#DejaVuSans-114"/>
      <use x="274.707031" xlink:href="#DejaVuSans-97"/>
      <use x="335.986328" xlink:href="#DejaVuSans-99"/>
      <use x="390.966797" xlink:href="#DejaVuSans-116"/>
      <use x="430.175781" xlink:href="#DejaVuSans-105"/>
      <use x="457.958984" xlink:href="#DejaVuSans-111"/>
      <use x="519.140625" xlink:href="#DejaVuSans-110"/>
     </g>
    </g>
   </g>
  </g>
 </g>
 <defs>
  <clipPath id="pc14ee62750">
   <rect height="269.32" width="374.44" x="69.08" y="17.28"/>
  </clipPath>
 </defs>
</svg>
